<svg xmlns="http://www.w3.org/2000/svg" width="356.999" height="147.556" viewBox="0 0 356.999 147.556"><defs><style>.a{opacity:0.424;}.b{fill:#0296e5;}.c{fill:#0276b4;}.d{fill:#02a437;}.e{fill:#029532;}.f{fill:#e82f3e;}.g{fill:#ea9d2d;}.h{fill:#fbb540;}</style></defs><g class="a" transform="translate(0 9.536)"><path class="b" d="M.4.819,20.621,0a3.9,3.9,0,0,1,4.117,4.119l-.222,5.518L0,10.629Z" transform="translate(247.824 73.251) rotate(-134.838)"/><path class="c" d="M.226.621,15.548,0a3.9,3.9,0,0,1,4.117,4.119l-.222,5.518-15.322.618A3.9,3.9,0,0,1,0,6.14Z" transform="translate(199.382 130.338) rotate(-134.838)"/><path class="b" d="M.226.988,24.741,0l-.4,9.811-20.225.815A3.9,3.9,0,0,1,0,6.507Z" transform="translate(142.115 94.28) rotate(-134.838)"/><path class="d" d="M0,0,24.936.9l.2,5.428a3.933,3.933,0,0,1-4.206,4.064L.361,9.65,0,0Z" transform="translate(2.471 129.289) rotate(-32.88)"/><path class="e" d="M4.209,0,19.794.566,20,5.994a3.933,3.933,0,0,1-4.206,4.064L.206,9.495,0,4.067A3.933,3.933,0,0,1,4.209,0Z" transform="translate(0 93.762) rotate(-32.88)"/><path class="d" d="M4.209,0,24.781.747l.361,9.65L.206,9.495,0,4.067A3.933,3.933,0,0,1,4.209,0Z" transform="translate(330.241 65.643) rotate(-32.88)"/><path class="b" d="M.4.819,20.637,0a3.9,3.9,0,0,1,4.121,4.116l-.222,5.514L0,10.622.4.819Z" transform="translate(34.228 0) rotate(44.595)"/><path class="c" d="M.226.621,15.561,0a3.9,3.9,0,0,1,4.121,4.116l-.222,5.514-15.335.618A3.9,3.9,0,0,1,0,6.135L.226.621Z" transform="translate(51.948 30.871) rotate(44.595)"/><path class="b" d="M.226.988,24.761,0l-.4,9.8-20.242.815A3.9,3.9,0,0,1,0,6.5L.226.988Z" transform="translate(38.312 29.916) rotate(44.595)"/><ellipse class="f" cx="5.103" cy="4.707" rx="5.103" ry="4.707" transform="translate(68.741 14.98)"/><ellipse class="d" cx="5.103" cy="4.707" rx="5.103" ry="4.707" transform="translate(172.023 80.881)"/><ellipse class="f" cx="5.103" cy="4.707" rx="5.103" ry="4.707" transform="translate(48.33 120.893)"/><ellipse class="g" cx="5.103" cy="4.707" rx="5.103" ry="4.707" transform="translate(7.51 19.687)"/><ellipse class="h" cx="10.205" cy="9.415" rx="10.205" ry="9.415" transform="translate(10.061 59.699)"/><ellipse class="b" cx="7.654" cy="7.061" rx="7.654" ry="7.061" transform="translate(139.299 52.638)"/><ellipse class="f" cx="10.205" cy="9.415" rx="10.205" ry="9.415" transform="translate(156.356 5.565)"/><path class="h" d="M111,84.337l5.171,14.681H132.9a3.089,3.089,0,0,1,2.95,1.977,2.741,2.741,0,0,1-1.126,3.2l-13.537,9.073,5.171,14.681a2.741,2.741,0,0,1-1.126,3.2,3.314,3.314,0,0,1-3.646,0l-13.538-9.073-13.537,9.075a3.314,3.314,0,0,1-3.646,0,2.741,2.741,0,0,1-1.126-3.2l5.171-14.681L81.375,104.2a2.741,2.741,0,0,1-1.126-3.2A3.089,3.089,0,0,1,83.2,99.02H99.931L105.1,84.339a3.189,3.189,0,0,1,5.9,0Z" transform="translate(154.555 -91.895)"/><path class="d" d="M.386.58,15.224,0l-.386,9.725L0,10.3Z" transform="translate(244.66 93.165) rotate(38.91)"/><path class="e" d="M.386.58,15.224,0l-.386,9.725L0,10.3Z" transform="translate(175.412 35.417) rotate(38.91)"/><path class="d" d="M0,0,14.587.58l.386,9.892L.386,9.892Z" transform="translate(215.205 24.145) rotate(-51.09)"/><g transform="translate(2.407 3.212)"><path class="f" d="M139.977,23.343a2.656,2.656,0,0,1-1.8-.689l-5.1-4.707a2.227,2.227,0,0,1,0-3.329,2.705,2.705,0,0,1,3.608,0l5.1,4.707a2.222,2.222,0,0,1,.553,2.565,2.562,2.562,0,0,1-2.357,1.453Z" transform="translate(-45.579 -13.929)"/><path class="f" d="M75.675,164.984a2.588,2.588,0,0,1-2.248-1.244,2.2,2.2,0,0,1,.128-2.415l5.1-7.061a2.686,2.686,0,0,1,3.538-.653,2.244,2.244,0,0,1,.707,3.264l-5.1,7.061a2.612,2.612,0,0,1-2.125,1.048Z" transform="translate(-29.754 -59.07)"/><path class="f" d="M139.977,197.452a2.656,2.656,0,0,1-1.8-.689l-5.1-4.707a2.227,2.227,0,0,1,0-3.329,2.705,2.705,0,0,1,3.608,0l5.1,4.707a2.222,2.222,0,0,1,.553,2.565,2.562,2.562,0,0,1-2.357,1.453Z" transform="translate(-45.579 -70.356)"/><path class="f" d="M187.107,113.88a2.562,2.562,0,0,1-2.357-1.453,2.222,2.222,0,0,1,.553-2.565l5.1-4.707a2.705,2.705,0,0,1,3.608,0,2.227,2.227,0,0,1,0,3.329l-5.1,4.707a2.656,2.656,0,0,1-1.8.689Z" transform="translate(-59.542 -43.271)"/><path class="f" d="M21.583,79.058a2.656,2.656,0,0,1-1.8-.689l-5.1-4.707a2.227,2.227,0,0,1,0-3.329,2.705,2.705,0,0,1,3.608,0l5.1,4.707a2.222,2.222,0,0,1,.553,2.565A2.562,2.562,0,0,1,21.583,79.058Z" transform="translate(-13.929 -31.985)"/></g></g></svg>