<svg xmlns="http://www.w3.org/2000/svg" xmlns:xlink="http://www.w3.org/1999/xlink" width="216" height="48" viewBox="0 0 216 48"><defs><style>.a{fill:none;}.b{clip-path:url(#a);}.c{fill:#fff;}.d{fill:#1a1818;}</style><clipPath id="a"><rect class="a" width="216" height="48"/></clipPath></defs><g class="b"><rect class="c" width="216" height="48"/><g transform="translate(-0.431 -2)"><path class="d" d="M8.431,32.824l5.017,5.017L15.7,32.962h.037l5.784-12.326,5.054,10.806H18.922l6.4,6.4H37.047L21.524,6Z"/><path class="d" d="M58.106,18.145a8.735,8.735,0,0,0-3.061-2.085,10.864,10.864,0,0,0-4.125-.754,7.6,7.6,0,0,0-5.055,1.731V15.662H39.211V37.839h6.7v-14.5a5.812,5.812,0,0,1,1.908-1.42,5.064,5.064,0,0,1,2.041-.487,3.315,3.315,0,0,1,3.1,1.508,7.036,7.036,0,0,1,.931,3.725V37.839h6.7V25.465a13.365,13.365,0,0,0-.623-4.126A8.207,8.207,0,0,0,58.106,18.145Z"/><path class="d" d="M78.255,16.992a7.927,7.927,0,0,0-2.261-1.242,7.64,7.64,0,0,0-2.662-.444,10.527,10.527,0,0,0-4.479.931,10.1,10.1,0,0,0-3.371,2.529,11.246,11.246,0,0,0-2.13,3.681,12.911,12.911,0,0,0,0,8.695,11.261,11.261,0,0,0,2.13,3.682,10.057,10.057,0,0,0,3.371,2.528,10.3,10.3,0,0,0,4.434.931,8.788,8.788,0,0,0,2.662-.4,6.953,6.953,0,0,0,2.263-1.2l.043-.133v1.286h6.7V15.662h-6.7Zm-.043,13.439a4.5,4.5,0,0,1-3.727,1.819l-.043-.043a5.344,5.344,0,0,1-2.13-.4,4.6,4.6,0,0,1-1.6-1.153A5.043,5.043,0,0,1,69.7,28.968a6.026,6.026,0,0,1,0-4.081A4.97,4.97,0,0,1,70.67,23.2a4.629,4.629,0,0,1,1.6-1.154,5.387,5.387,0,0,1,2.13-.4,4.75,4.75,0,0,1,2.173.487,5.178,5.178,0,0,1,1.642,1.332Z"/><path class="d" d="M107.765,18.722a10.286,10.286,0,0,0-7.852-3.459,7.583,7.583,0,0,0-2.66.444,7.988,7.988,0,0,0-2.263,1.241V15.617l-6.654.045V39.388L95.035,46V36.553a6.923,6.923,0,0,0,2.261,1.2,8.829,8.829,0,0,0,2.662.4,10.32,10.32,0,0,0,4.436-.932,10.07,10.07,0,0,0,3.371-2.528,11.082,11.082,0,0,0,2.128-3.636,12.911,12.911,0,0,0,0-8.7A11.066,11.066,0,0,0,107.765,18.722Zm-4.3,10.069a5.013,5.013,0,0,1-1.02,1.685,4.613,4.613,0,0,1-1.6,1.153,5.34,5.34,0,0,1-2.127.4,4.419,4.419,0,0,1-3.772-1.817V23.247a4.454,4.454,0,0,1,3.772-1.863h.043a5.34,5.34,0,0,1,2.129.4,4.591,4.591,0,0,1,1.6,1.153,4.916,4.916,0,0,1,.974,1.686,6.281,6.281,0,0,1,0,4.169Z"/><path class="d" d="M127.248,16.992a7.927,7.927,0,0,0-2.261-1.242,7.64,7.64,0,0,0-2.662-.444,10.527,10.527,0,0,0-4.479.931,10.1,10.1,0,0,0-3.371,2.529,11.282,11.282,0,0,0-2.13,3.681,12.911,12.911,0,0,0,0,8.695,11.3,11.3,0,0,0,2.13,3.682,10.057,10.057,0,0,0,3.371,2.528,10.308,10.308,0,0,0,4.434.931,8.788,8.788,0,0,0,2.662-.4,6.953,6.953,0,0,0,2.263-1.2l.043-.133v1.286h6.7V15.662h-6.7Zm-.043,13.439a4.5,4.5,0,0,1-3.727,1.819l-.043-.043a5.339,5.339,0,0,1-2.129-.4,4.591,4.591,0,0,1-1.6-1.153,5.059,5.059,0,0,1-1.019-1.685,6.026,6.026,0,0,1,0-4.081,4.97,4.97,0,0,1,.974-1.685,4.633,4.633,0,0,1,1.6-1.154,5.378,5.378,0,0,1,2.129-.4,4.75,4.75,0,0,1,2.173.487,5.168,5.168,0,0,1,1.642,1.332Z"/><path class="d" d="M156.226,18.145a8.753,8.753,0,0,0-3.061-2.085,10.879,10.879,0,0,0-4.125-.754,7.607,7.607,0,0,0-5.057,1.731V15.662h-6.654V37.839h6.7v-14.5a5.771,5.771,0,0,1,1.908-1.42,5.055,5.055,0,0,1,2.039-.487,3.32,3.32,0,0,1,3.106,1.508,7.036,7.036,0,0,1,.931,3.725V37.839h6.7V25.465a13.426,13.426,0,0,0-.621-4.126A8.207,8.207,0,0,0,156.226,18.145Z"/><path class="d" d="M176.375,16.992a7.966,7.966,0,0,0-2.263-1.242,7.629,7.629,0,0,0-2.66-.444,10.537,10.537,0,0,0-4.481.931,10.12,10.12,0,0,0-3.371,2.529,11.3,11.3,0,0,0-2.13,3.681,12.943,12.943,0,0,0,0,8.695,11.314,11.314,0,0,0,2.13,3.682,10.077,10.077,0,0,0,3.371,2.528,10.32,10.32,0,0,0,4.436.931,8.8,8.8,0,0,0,2.662-.4,6.943,6.943,0,0,0,2.261-1.2l.045-.133v1.286h6.7V13.019l-6.7-6.671Zm-.045,13.439A4.5,4.5,0,0,1,172.6,32.25l-.045-.043a5.343,5.343,0,0,1-2.129-.4,4.591,4.591,0,0,1-1.6-1.153,5.076,5.076,0,0,1-1.019-1.685,6.058,6.058,0,0,1,0-4.081,4.942,4.942,0,0,1,.976-1.685,4.629,4.629,0,0,1,1.6-1.154,5.377,5.377,0,0,1,2.128-.4,4.759,4.759,0,0,1,2.175.487,5.15,5.15,0,0,1,1.64,1.332Z"/><path class="d" d="M200.872,15.662v1.33a7.966,7.966,0,0,0-2.263-1.242,7.629,7.629,0,0,0-2.66-.444,10.533,10.533,0,0,0-4.481.931,10.12,10.12,0,0,0-3.371,2.529,11.281,11.281,0,0,0-2.13,3.681,12.927,12.927,0,0,0,0,8.695,11.3,11.3,0,0,0,2.13,3.682,10.077,10.077,0,0,0,3.371,2.528,10.32,10.32,0,0,0,4.436.931,8.786,8.786,0,0,0,2.661-.4,6.948,6.948,0,0,0,2.262-1.2l.045-.133v1.286h6.7V15.662Zm-.045,14.769A4.5,4.5,0,0,1,197.1,32.25l-.045-.043a5.351,5.351,0,0,1-2.13-.4,4.588,4.588,0,0,1-1.6-1.153,5.079,5.079,0,0,1-1.02-1.685,6.074,6.074,0,0,1,0-4.081,4.945,4.945,0,0,1,.977-1.685,4.629,4.629,0,0,1,1.6-1.154,5.377,5.377,0,0,1,2.128-.4,4.758,4.758,0,0,1,2.174.487,5.153,5.153,0,0,1,1.641,1.332Z"/></g></g></svg>