<svg xmlns="http://www.w3.org/2000/svg" viewBox="0 0 199.14 40"><defs><style>.cls-1{fill:#231f20;}</style></defs><title>anapanda_logo_1</title><g id="Layer_2" data-name="Layer 2"><g id="Layer_1-2" data-name="Layer 1"><polygon class="cls-1" points="0 26.82 5.02 31.84 7.27 26.96 7.31 26.96 13.09 14.64 18.15 25.44 10.49 25.44 16.89 31.84 21.15 31.84 21.15 31.84 28.62 31.84 13.09 0 0 26.82"/><path class="cls-1" d="M49.67,12.14a8.79,8.79,0,0,0-3.06-2.08,10.77,10.77,0,0,0-4.12-.75A7.58,7.58,0,0,0,37.43,11V9.66H30.78V31.84h6.7V17.34a5.84,5.84,0,0,1,1.9-1.43,5.1,5.1,0,0,1,2-.48,3.29,3.29,0,0,1,3.1,1.51,7,7,0,0,1,.93,3.72V31.84h6.7V19.46a13.39,13.39,0,0,0-.62-4.12A8.21,8.21,0,0,0,49.67,12.14Z"/><path class="cls-1" d="M69.82,11a7.84,7.84,0,0,0-2.26-1.24,7.62,7.62,0,0,0-2.66-.44,10.53,10.53,0,0,0-4.48.93,10,10,0,0,0-3.37,2.53,11.24,11.24,0,0,0-2.13,3.68,13,13,0,0,0,0,8.69,11.24,11.24,0,0,0,2.13,3.68,10,10,0,0,0,3.37,2.53,10.35,10.35,0,0,0,4.44.93,8.7,8.7,0,0,0,2.66-.4,6.9,6.9,0,0,0,2.26-1.19l0-.14v1.29h6.7V9.66h-6.7Zm0,13.44a4.49,4.49,0,0,1-3.73,1.82l0,0a5.47,5.47,0,0,1-2.13-.4,4.74,4.74,0,0,1-1.6-1.16,5.15,5.15,0,0,1-1-1.68,6.12,6.12,0,0,1,0-4.08,5.2,5.2,0,0,1,1-1.69,4.61,4.61,0,0,1,1.6-1.15,5.29,5.29,0,0,1,2.13-.4,4.76,4.76,0,0,1,2.17.49,5.15,5.15,0,0,1,1.64,1.33Z"/><path class="cls-1" d="M99.33,12.72a10.25,10.25,0,0,0-7.85-3.46,7.4,7.4,0,0,0-2.66.45A8,8,0,0,0,86.56,11V9.62l-6.65,0V33.39L86.6,40V30.55a7.06,7.06,0,0,0,2.27,1.2,8.65,8.65,0,0,0,2.66.4A10.3,10.3,0,0,0,96,31.22a10.11,10.11,0,0,0,3.37-2.53,10.88,10.88,0,0,0,2.13-3.64,12.8,12.8,0,0,0,0-8.69A11,11,0,0,0,99.33,12.72ZM95,22.79a5.13,5.13,0,0,1-1,1.69,4.75,4.75,0,0,1-1.6,1.15,5.27,5.27,0,0,1-2.12.4,4.42,4.42,0,0,1-3.78-1.82v-7a4.49,4.49,0,0,1,3.78-1.87h0a5.47,5.47,0,0,1,2.13.4,4.74,4.74,0,0,1,1.6,1.16,4.86,4.86,0,0,1,1,1.68,6.22,6.22,0,0,1,0,4.17Z"/><path class="cls-1" d="M118.82,11a8.12,8.12,0,0,0-2.26-1.24,7.67,7.67,0,0,0-2.67-.44,10.49,10.49,0,0,0-4.47.93A10,10,0,0,0,106,12.77a11.24,11.24,0,0,0-2.13,3.68,13,13,0,0,0,0,8.69A11.24,11.24,0,0,0,106,28.82a10,10,0,0,0,3.38,2.53,10.3,10.3,0,0,0,4.43.93,8.65,8.65,0,0,0,2.66-.4,6.8,6.8,0,0,0,2.26-1.19l0-.14v1.29h6.7V9.66h-6.7Zm0,13.44a4.49,4.49,0,0,1-3.72,1.82l0,0a5.5,5.5,0,0,1-2.13-.4,4.6,4.6,0,0,1-1.59-1.16,4.83,4.83,0,0,1-1-1.68,6,6,0,0,1,0-4.08,5,5,0,0,1,1-1.69,4.71,4.71,0,0,1,1.6-1.15,5.29,5.29,0,0,1,2.13-.4,4.76,4.76,0,0,1,2.17.49,5.15,5.15,0,0,1,1.64,1.33Z"/><path class="cls-1" d="M147.8,12.14a8.92,8.92,0,0,0-3.07-2.08,10.77,10.77,0,0,0-4.12-.75A7.58,7.58,0,0,0,135.55,11V9.66H128.9V31.84h6.7V17.34a5.74,5.74,0,0,1,1.9-1.43,5.09,5.09,0,0,1,2-.48,3.3,3.3,0,0,1,3.11,1.51,7,7,0,0,1,.93,3.72V31.84h6.7V19.46a13.39,13.39,0,0,0-.62-4.12A8.31,8.31,0,0,0,147.8,12.14Z"/><path class="cls-1" d="M167.94,11a8,8,0,0,0-2.26-1.24A7.62,7.62,0,0,0,163,9.31a10.53,10.53,0,0,0-4.48.93,10,10,0,0,0-3.37,2.53A11.24,11.24,0,0,0,153,16.45a13,13,0,0,0,0,8.69,11.24,11.24,0,0,0,2.13,3.68,10,10,0,0,0,3.37,2.53,10.35,10.35,0,0,0,4.44.93,8.65,8.65,0,0,0,2.66-.4,6.9,6.9,0,0,0,2.26-1.19l0-.14v1.29h6.7V7L167.94.35Zm0,13.44a4.49,4.49,0,0,1-3.73,1.82l0,0a5.47,5.47,0,0,1-2.13-.4,4.74,4.74,0,0,1-1.6-1.16,5,5,0,0,1-1-1.68,6.12,6.12,0,0,1,0-4.08,5,5,0,0,1,1-1.69,4.61,4.61,0,0,1,1.6-1.15,5.27,5.27,0,0,1,2.12-.4,4.77,4.77,0,0,1,2.18.49,5.15,5.15,0,0,1,1.64,1.33Z"/><path class="cls-1" d="M192.44,9.66V11a8.12,8.12,0,0,0-2.26-1.24,7.66,7.66,0,0,0-2.66-.44,10.53,10.53,0,0,0-4.48.93,10,10,0,0,0-3.37,2.53,11.06,11.06,0,0,0-2.13,3.68,12.8,12.8,0,0,0,0,8.69,11.06,11.06,0,0,0,2.13,3.68A10,10,0,0,0,183,31.35a10.3,10.3,0,0,0,4.43.93,8.65,8.65,0,0,0,2.66-.4,6.85,6.85,0,0,0,2.27-1.19l0-.14v1.29h6.7V9.66Zm0,14.77a4.52,4.52,0,0,1-3.73,1.82l0,0a5.47,5.47,0,0,1-2.13-.4,4.64,4.64,0,0,1-1.6-1.16,5,5,0,0,1-1-1.68,6.12,6.12,0,0,1,0-4.08,4.87,4.87,0,0,1,1-1.69,4.58,4.58,0,0,1,1.59-1.15,5.29,5.29,0,0,1,2.13-.4,4.83,4.83,0,0,1,2.18.49,5.15,5.15,0,0,1,1.64,1.33Z"/></g></g></svg>