<svg xmlns="http://www.w3.org/2000/svg" viewBox="0 0 207.56 53.09"><defs><style>.cls-1{fill:#231f20;}.cls-2{fill:none;}</style></defs><title>anapanda-logo</title><g id="Layer_2" data-name="Layer 2"><g id="Layer_1-2" data-name="Layer 1"><polygon class="cls-1" points="18.9 33.87 23.17 38.15 25.09 33.99 25.13 33.99 30.06 23.48 34.37 32.7 27.84 32.7 33.3 38.15 36.93 38.15 36.93 38.15 43.29 38.15 30.06 11 18.9 33.87"/><path class="cls-1" d="M61.25,21.36a7.48,7.48,0,0,0-2.61-1.78,9.4,9.4,0,0,0-3.52-.64,6.49,6.49,0,0,0-4.31,1.47V19.24H45.14V38.15h5.71V25.78a5,5,0,0,1,1.62-1.21,4.45,4.45,0,0,1,1.74-.41,2.83,2.83,0,0,1,2.65,1.28,6,6,0,0,1,.79,3.18v9.53h5.71V27.6a11.46,11.46,0,0,0-.53-3.52A7.09,7.09,0,0,0,61.25,21.36Z"/><path class="cls-1" d="M78.42,20.38a6.52,6.52,0,0,0-1.92-1.06,6.41,6.41,0,0,0-2.27-.38,8.94,8.94,0,0,0-3.82.79,8.6,8.6,0,0,0-2.88,2.16A9.52,9.52,0,0,0,65.72,25a11,11,0,0,0,0,7.41,9.62,9.62,0,0,0,1.81,3.14,8.57,8.57,0,0,0,2.88,2.15,8.76,8.76,0,0,0,3.78.8,7.75,7.75,0,0,0,2.27-.34,6.05,6.05,0,0,0,1.93-1l0-.12v1.1h5.71V19.24H78.42Zm0,11.45a3.86,3.86,0,0,1-3.18,1.55l0,0A4.67,4.67,0,0,1,73.36,33,3.85,3.85,0,0,1,72,32a4.24,4.24,0,0,1-.87-1.44,5,5,0,0,1-.31-1.73,5,5,0,0,1,.31-1.74A4.24,4.24,0,0,1,72,25.67a3.79,3.79,0,0,1,1.36-1,4.5,4.5,0,0,1,1.81-.34,4.15,4.15,0,0,1,1.86.41,4.43,4.43,0,0,1,1.4,1.14Z"/><path class="cls-1" d="M103.58,21.85a8.56,8.56,0,0,0-2.91-2.15,8.76,8.76,0,0,0-3.78-.8,6.37,6.37,0,0,0-2.27.38,6.58,6.58,0,0,0-1.93,1.06V19.2l-5.67,0V39.47l5.71,5.64V37.05a5.68,5.68,0,0,0,1.93,1,7.38,7.38,0,0,0,2.27.34,8.82,8.82,0,0,0,3.78-.79,8.56,8.56,0,0,0,2.87-2.16,9.36,9.36,0,0,0,1.82-3.1,11,11,0,0,0,0-7.41A9.46,9.46,0,0,0,103.58,21.85Zm-3.67,8.58A4.24,4.24,0,0,1,99,31.87a3.79,3.79,0,0,1-1.36,1,4.5,4.5,0,0,1-1.81.34,3.77,3.77,0,0,1-3.22-1.54V25.71a3.81,3.81,0,0,1,3.22-1.59h0a4.51,4.51,0,0,1,1.82.34,4.05,4.05,0,0,1,1.36,1,4.24,4.24,0,0,1,.83,1.44,5.24,5.24,0,0,1,0,3.55Z"/><path class="cls-1" d="M120.19,20.38a6.45,6.45,0,0,0-1.93-1.06,6.31,6.31,0,0,0-2.26-.38,8.94,8.94,0,0,0-3.82.79,8.6,8.6,0,0,0-2.88,2.16A9.52,9.52,0,0,0,107.49,25a10.88,10.88,0,0,0,0,7.41,9.62,9.62,0,0,0,1.81,3.14,8.57,8.57,0,0,0,2.88,2.15,8.76,8.76,0,0,0,3.78.8,7.75,7.75,0,0,0,2.27-.34,6.16,6.16,0,0,0,1.93-1l0-.12v1.1h5.71V19.24h-5.71Zm0,11.45A3.86,3.86,0,0,1,117,33.38l0,0a4.67,4.67,0,0,1-1.81-.34,4,4,0,0,1-1.37-1,4.22,4.22,0,0,1-.86-1.44,5,5,0,0,1-.31-1.73,5,5,0,0,1,.31-1.74,4.08,4.08,0,0,1,.83-1.44,3.71,3.71,0,0,1,1.36-1,4.5,4.5,0,0,1,1.81-.34,4.15,4.15,0,0,1,1.86.41,4.54,4.54,0,0,1,1.4,1.14Z"/><path class="cls-1" d="M144.9,21.36a7.48,7.48,0,0,0-2.61-1.78,9.4,9.4,0,0,0-3.52-.64,6.49,6.49,0,0,0-4.31,1.47V19.24h-5.67V38.15h5.71V25.78a5,5,0,0,1,1.62-1.21,4.45,4.45,0,0,1,1.74-.41,2.83,2.83,0,0,1,2.65,1.28,6,6,0,0,1,.79,3.18v9.53H147V27.6a11.46,11.46,0,0,0-.53-3.52A7,7,0,0,0,144.9,21.36Z"/><path class="cls-1" d="M162.08,20.38a6.7,6.7,0,0,0-1.93-1.06,6.41,6.41,0,0,0-2.27-.38,8.94,8.94,0,0,0-3.82.79,8.6,8.6,0,0,0-2.88,2.16A9.7,9.7,0,0,0,149.37,25a11,11,0,0,0,0,7.41,9.81,9.81,0,0,0,1.81,3.14,8.57,8.57,0,0,0,2.88,2.15,8.76,8.76,0,0,0,3.78.8,7.75,7.75,0,0,0,2.27-.34,6.05,6.05,0,0,0,1.93-1l0-.12v1.1h5.7V17l-5.7-5.69Zm0,11.45a3.86,3.86,0,0,1-3.18,1.55l0,0A4.67,4.67,0,0,1,157,33a3.85,3.85,0,0,1-1.36-1,4.24,4.24,0,0,1-.87-1.44,5,5,0,0,1-.31-1.73,5,5,0,0,1,.31-1.74,4.24,4.24,0,0,1,.83-1.44,3.79,3.79,0,0,1,1.36-1,4.5,4.5,0,0,1,1.81-.34,4.15,4.15,0,0,1,1.86.41A4.43,4.43,0,0,1,162,25.9Z"/><path class="cls-1" d="M183,19.24v1.14A6.58,6.58,0,0,0,181,19.32a6.37,6.37,0,0,0-2.27-.38,9,9,0,0,0-3.82.79,8.56,8.56,0,0,0-2.87,2.16A9.55,9.55,0,0,0,170.25,25a11,11,0,0,0,0,7.41,9.65,9.65,0,0,0,1.82,3.14,8.53,8.53,0,0,0,2.87,2.15,8.83,8.83,0,0,0,3.78.8,7.7,7.7,0,0,0,2.27-.34,6.05,6.05,0,0,0,1.93-1l0-.12v1.1h5.71V19.24Zm0,12.59a3.83,3.83,0,0,1-3.17,1.55l0,0a4.72,4.72,0,0,1-1.82-.34,3.94,3.94,0,0,1-1.36-1,4.24,4.24,0,0,1-.87-1.44,5,5,0,0,1-.3-1.73,5,5,0,0,1,.3-1.74,4.24,4.24,0,0,1,.83-1.44,3.88,3.88,0,0,1,1.36-1,4.54,4.54,0,0,1,1.82-.34,4.1,4.1,0,0,1,1.85.41,4.32,4.32,0,0,1,1.4,1.14Z"/><rect class="cls-2" width="207.56" height="53.09"/></g></g></svg>