<svg id="Layer_1" data-name="Layer 1" xmlns="http://www.w3.org/2000/svg" viewBox="0 0 216 48"><title>anapanda_logo_1</title><polygon points="8.43 32.82 13.45 37.84 15.7 32.96 15.74 32.96 21.52 20.64 26.58 31.44 18.92 31.44 25.32 37.84 29.58 37.84 29.58 37.84 37.05 37.84 21.52 6 8.43 32.82" fill="#121212"/><path d="M58.11,18.14a9,9,0,0,0-3.06-2.08,10.86,10.86,0,0,0-4.13-.75A7.58,7.58,0,0,0,45.86,17V15.66H39.21V37.84h6.7V23.34a5.88,5.88,0,0,1,1.91-1.43,5,5,0,0,1,2-.48A3.29,3.29,0,0,1,53,22.94a7,7,0,0,1,.93,3.72V37.84h6.7V25.46A13.39,13.39,0,0,0,60,21.34,8.31,8.31,0,0,0,58.11,18.14Z" fill="#121212"/><path d="M78.26,17A8,8,0,0,0,76,15.75a7.62,7.62,0,0,0-2.66-.44,10.53,10.53,0,0,0-4.48.93,10,10,0,0,0-3.37,2.53,11.24,11.24,0,0,0-2.13,3.68,13,13,0,0,0,0,8.69,11.24,11.24,0,0,0,2.13,3.68,10,10,0,0,0,3.37,2.53,10.35,10.35,0,0,0,4.44.93,8.65,8.65,0,0,0,2.66-.4,6.8,6.8,0,0,0,2.26-1.19l.05-.14v1.29H85V15.66H78.26Zm-.05,13.44a4.49,4.49,0,0,1-3.72,1.82l0,0a5.47,5.47,0,0,1-2.13-.4,4.6,4.6,0,0,1-1.59-1.16,4.83,4.83,0,0,1-1-1.68,6,6,0,0,1,0-4.08,5,5,0,0,1,1-1.69,4.61,4.61,0,0,1,1.6-1.15,5.29,5.29,0,0,1,2.13-.4,4.76,4.76,0,0,1,2.17.49,5.15,5.15,0,0,1,1.64,1.33Z" fill="#121212"/><path d="M107.77,18.72a10.29,10.29,0,0,0-7.86-3.46,7.44,7.44,0,0,0-2.66.45A8.12,8.12,0,0,0,95,17V15.62l-6.65,0V39.39L95,46V36.55a6.91,6.91,0,0,0,2.26,1.2,8.65,8.65,0,0,0,2.66.4,10.12,10.12,0,0,0,7.81-3.46,10.86,10.86,0,0,0,2.12-3.64,12.8,12.8,0,0,0,0-8.69A11,11,0,0,0,107.77,18.72Zm-4.31,10.07a5,5,0,0,1-1,1.69,4.65,4.65,0,0,1-1.6,1.15,5.27,5.27,0,0,1-2.12.4,4.42,4.42,0,0,1-3.78-1.82v-7a4.49,4.49,0,0,1,3.78-1.87h0a5.47,5.47,0,0,1,2.13.4,4.74,4.74,0,0,1,1.6,1.16,4.86,4.86,0,0,1,1,1.68,6.22,6.22,0,0,1,0,4.17Z" fill="#121212"/><path d="M127.25,17A8.12,8.12,0,0,0,125,15.75a7.66,7.66,0,0,0-2.66-.44,10.5,10.5,0,0,0-4.48.93,10,10,0,0,0-3.38,2.53,11,11,0,0,0-2.12,3.68,12.8,12.8,0,0,0,0,8.69,11,11,0,0,0,2.12,3.68,10,10,0,0,0,3.38,2.53,10.3,10.3,0,0,0,4.43.93,8.65,8.65,0,0,0,2.66-.4,6.94,6.94,0,0,0,2.27-1.19l0-.14v1.29H134V15.66h-6.7Zm0,13.44a4.52,4.52,0,0,1-3.73,1.82l0,0a5.47,5.47,0,0,1-2.13-.4,4.55,4.55,0,0,1-1.6-1.16,4.83,4.83,0,0,1-1-1.68,6,6,0,0,1,0-4.08,5,5,0,0,1,1-1.69,4.71,4.71,0,0,1,1.6-1.15,5.29,5.29,0,0,1,2.13-.4,4.76,4.76,0,0,1,2.17.49,5.18,5.18,0,0,1,1.65,1.33Z" fill="#121212"/><path d="M156.23,18.14a9,9,0,0,0-3.06-2.08,10.86,10.86,0,0,0-4.13-.75A7.58,7.58,0,0,0,144,17V15.66h-6.65V37.84H144V23.34a5.67,5.67,0,0,1,1.91-1.43,5.05,5.05,0,0,1,2-.48,3.29,3.29,0,0,1,3.1,1.51,7,7,0,0,1,.93,3.72V37.84h6.7V25.46a13.39,13.39,0,0,0-.62-4.12A8.31,8.31,0,0,0,156.23,18.14Z" fill="#121212"/><path d="M176.38,17a8.17,8.17,0,0,0-2.27-1.24,7.62,7.62,0,0,0-2.66-.44,10.53,10.53,0,0,0-4.48.93,10,10,0,0,0-3.37,2.53,11.24,11.24,0,0,0-2.13,3.68,13,13,0,0,0,0,8.69,11.24,11.24,0,0,0,2.13,3.68A10,10,0,0,0,167,37.35a10.35,10.35,0,0,0,4.44.93,8.65,8.65,0,0,0,2.66-.4,6.9,6.9,0,0,0,2.26-1.19l0-.14v1.29h6.69V13l-6.69-6.67Zm0,13.44a4.49,4.49,0,0,1-3.72,1.82l-.05,0a5.47,5.47,0,0,1-2.13-.4,4.74,4.74,0,0,1-1.6-1.16,5.15,5.15,0,0,1-1-1.68,6.12,6.12,0,0,1,0-4.08,5.2,5.2,0,0,1,1-1.69,4.61,4.61,0,0,1,1.6-1.15,5.29,5.29,0,0,1,2.13-.4,4.76,4.76,0,0,1,2.17.49,5.15,5.15,0,0,1,1.64,1.33Z" fill="#121212"/><path d="M200.87,15.66V17a8,8,0,0,0-2.26-1.24,7.62,7.62,0,0,0-2.66-.44,10.53,10.53,0,0,0-4.48.93,10,10,0,0,0-3.37,2.53A11.24,11.24,0,0,0,186,22.45a12.8,12.8,0,0,0,0,8.69,11.24,11.24,0,0,0,2.13,3.68,10,10,0,0,0,3.37,2.53,10.3,10.3,0,0,0,4.43.93,8.76,8.76,0,0,0,2.67-.4,6.9,6.9,0,0,0,2.26-1.19l0-.14v1.29h6.7V15.66Zm0,14.77a4.51,4.51,0,0,1-3.73,1.82l0,0a5.47,5.47,0,0,1-2.13-.4,4.64,4.64,0,0,1-1.6-1.16,5,5,0,0,1-1-1.68,6.12,6.12,0,0,1,0-4.08,4.87,4.87,0,0,1,1-1.69,4.58,4.58,0,0,1,1.59-1.15,5.29,5.29,0,0,1,2.13-.4,4.8,4.8,0,0,1,2.18.49,5.15,5.15,0,0,1,1.64,1.33Z" fill="#121212"/></svg>