<svg id="Group_130" data-name="Group 130" xmlns="http://www.w3.org/2000/svg" width="16.2" height="16.2" viewBox="0 0 16.2 16.2">
  <defs>
    <style>
      .cls-1 {
        fill: none;
        stroke: #969899;
        stroke-linecap: round;
        stroke-linejoin: round;
        stroke-miterlimit: 10;
      }
    </style>
  </defs>
  <path id="Path_102" data-name="Path 102" class="cls-1" d="M8.1,1.6a6.486,6.486,0,0,1,6.2,4.5"/>
  <path id="Path_103" data-name="Path 103" class="cls-1" d="M9.2,3,8.1,1.6,9.5.5"/>
  <path id="Path_104" data-name="Path 104" class="cls-1" d="M1.6,8.1A6.486,6.486,0,0,1,6.1,1.9"/>
  <path id="Path_105" data-name="Path 105" class="cls-1" d="M3,7,1.6,8.1.5,6.7"/>
  <path id="Path_106" data-name="Path 106" class="cls-1" d="M8.1,14.6a6.486,6.486,0,0,1-6.2-4.5"/>
  <path id="Path_107" data-name="Path 107" class="cls-1" d="M7,13.2l1.1,1.4L6.7,15.7"/>
  <path id="Path_108" data-name="Path 108" class="cls-1" d="M14.6,8.1a6.486,6.486,0,0,1-4.5,6.2"/>
  <path id="Path_109" data-name="Path 109" class="cls-1" d="M13.2,9.2l1.4-1.1,1.1,1.4"/>
</svg>
