<svg xmlns="http://www.w3.org/2000/svg" id="Group_130" width="16.2" height="16.2" data-name="Group 130" viewBox="0 0 16.2 16.2"><defs><style>.cls-1{fill:none;stroke:#969899;stroke-linecap:round;stroke-linejoin:round;stroke-miterlimit:10}</style></defs><path id="Path_102" d="M8.1,1.6a6.486,6.486,0,0,1,6.2,4.5" class="cls-1" data-name="Path 102"/><path id="Path_103" d="M9.2,3,8.1,1.6,9.5.5" class="cls-1" data-name="Path 103"/><path id="Path_104" d="M1.6,8.1A6.486,6.486,0,0,1,6.1,1.9" class="cls-1" data-name="Path 104"/><path id="Path_105" d="M3,7,1.6,8.1.5,6.7" class="cls-1" data-name="Path 105"/><path id="Path_106" d="M8.1,14.6a6.486,6.486,0,0,1-6.2-4.5" class="cls-1" data-name="Path 106"/><path id="Path_107" d="M7,13.2l1.1,1.4L6.7,15.7" class="cls-1" data-name="Path 107"/><path id="Path_108" d="M14.6,8.1a6.486,6.486,0,0,1-4.5,6.2" class="cls-1" data-name="Path 108"/><path id="Path_109" d="M13.2,9.2l1.4-1.1,1.1,1.4" class="cls-1" data-name="Path 109"/></svg>