<svg xmlns="http://www.w3.org/2000/svg" id="Group_123" width="12" height="17" data-name="Group 123" viewBox="0 0 12 17"><defs><style>.cls-1,.cls-2{stroke:#969899;stroke-miterlimit:10}.cls-1{fill:transparent;stroke-linecap:round;stroke-linejoin:round}.cls-2{fill:#fff}</style></defs><path id="Path_98" d="M7.5,2.5h3a.945.945,0,0,1,1,1v12a.945.945,0,0,1-1,1h-9a.945.945,0,0,1-1-1V3.5a.945.945,0,0,1,1-1h3" class="cls-1" data-name="Path 98"/><path id="Path_99" d="M9.5,4.5h-7v-1a.945.945,0,0,1,1-1h1V2A1.538,1.538,0,0,1,6,.5H6A1.538,1.538,0,0,1,7.5,2v.5h1a.945.945,0,0,1,1,1Z" class="cls-2" data-name="Path 99"/><circle id="Ellipse_31" cx=".5" cy=".5" r=".5" data-name="Ellipse 31" transform="translate(5.5 1.5)"/><path id="Path_100" d="M4.5,7.5l1,1,2-2" class="cls-1" data-name="Path 100"/><path id="Path_101" d="M4.5,11.5l1,1,2-2" class="cls-1" data-name="Path 101"/></svg>