<svg id="comments-svgrepo-com" xmlns="http://www.w3.org/2000/svg" width="41.505" height="41.505" viewBox="0 0 41.505 41.505">
  <path id="Path_11626" data-name="Path 11626" d="M20.783,0a20.75,20.75,0,0,0-7.248,40.206L40.367,13.947A20.72,20.72,0,0,0,20.783,0Z" fill="#48dbaf"/>
  <path id="Path_11627" data-name="Path 11627" d="M93.911,121.115a20.721,20.721,0,0,0-1.143-6.8l-3.995-3.995L57.6,128.515l4.582,4.582-.973,2.753,4.725,4.725a20.764,20.764,0,0,0,27.974-19.461Z" transform="translate(-52.406 -100.362)" fill="#32a583"/>
  <path id="Path_11628" data-name="Path 11628" d="M218.325,110.317v18.2H202.74l-2.737-9.1,2.737-9.1Z" transform="translate(-181.957 -100.363)" fill="#71e2f0"/>
  <path id="Path_11629" data-name="Path 11629" d="M73.188,110.317v18.2H68.547l-7.335,7.336v-7.336H57.6v-18.2Z" transform="translate(-52.406 -100.363)" fill="#c2fbff"/>
  <path id="Path_11630" data-name="Path 11630" d="M225.918,130.317v14.59H212.138l-1.8-7.3,1.8-7.3Z" transform="translate(-191.355 -118.559)" fill="#c2fbff"/>
  <rect id="Rectangle_1105" data-name="Rectangle 1105" width="13.781" height="14.59" transform="translate(7.002 11.758)" fill="#fff"/>
  <rect id="Rectangle_1106" data-name="Rectangle 1106" width="11.976" height="1.805" transform="translate(8.807 21.76)" fill="#366796"/>
  <path id="Path_11631" data-name="Path 11631" d="M221.235,202.972h11.976v-1.8H221.235l-.9.9Z" transform="translate(-200.453 -183.016)" fill="#121149"/>
  <rect id="Rectangle_1107" data-name="Rectangle 1107" width="11.976" height="1.805" transform="translate(8.807 18.151)" fill="#366796"/>
  <path id="Path_11632" data-name="Path 11632" d="M221.235,162.972h11.976v-1.8H221.235l-.9.9Z" transform="translate(-200.453 -146.625)" fill="#121149"/>
  <rect id="Rectangle_1108" data-name="Rectangle 1108" width="11.976" height="1.805" transform="translate(8.807 14.542)" fill="#366796"/>
</svg>
