<svg id="Layer_1" data-name="Layer 1" xmlns="http://www.w3.org/2000/svg" viewBox="0 0 512 384"><defs><style>.cls-1{fill:black;}</style></defs><title>email</title><path class="cls-1" d="M405.33,213.87V106.67A42.71,42.71,0,0,0,362.67,64h-320A42.72,42.72,0,0,0,0,106.67V320a42.72,42.72,0,0,0,42.67,42.67H281.88c14,49.17,59.19,85.33,112.79,85.33a117.27,117.27,0,0,0,58.67-15.71,10.66,10.66,0,0,0-10.68-18.46,96,96,0,1,1,48-83.16v10.66a21.34,21.34,0,1,1-42.67,0V298.67A10.63,10.63,0,0,0,430,291a53.32,53.32,0,1,0,4.51,74.8A42.6,42.6,0,0,0,512,341.33V330.67C512,269.57,465,219.29,405.33,213.87ZM362.67,85.33c.44,0,.81.23,1.25.26L211.44,210.75c-5.43,3.42-13.29,2.71-16.83.54L41.43,85.58c.43,0,.8-.25,1.24-.25ZM277.33,330.67c0,3.6.22,7.15.54,10.66H42.67A21.36,21.36,0,0,1,21.33,320V106.67a21.06,21.06,0,0,1,1.81-8.48L182,228.48a37.52,37.52,0,0,0,40.57.46,10.37,10.37,0,0,0,1.72-1.16L382.19,98.18a21.11,21.11,0,0,1,1.81,8.49v107.2C324.29,219.29,277.33,269.57,277.33,330.67Zm117.34,32a32,32,0,1,1,32-32A32,32,0,0,1,394.67,362.67Z" transform="translate(0 -64)"/></svg>
