<?xml version="1.0" standalone="no"?>
<!DOCTYPE svg PUBLIC "-//W3C//DTD SVG 20010904//EN"
 "http://www.w3.org/TR/2001/REC-SVG-20010904/DTD/svg10.dtd">
<svg version="1.0" xmlns="http://www.w3.org/2000/svg"
 width="24px" height="24px" viewBox="0 0 512.000000 512.000000"
 preserveAspectRatio="xMidYMid meet">
<g transform="translate(0.000000,512.000000) scale(0.100000,-0.100000)"
fill="#ffffff" stroke="none">
<path d="M2347 5110 c-626 -57 -1187 -323 -1622 -771 -379 -390 -613 -864
-696 -1410 -31 -205 -31 -533 0 -738 83 -546 317 -1020 696 -1410 360 -371
834 -632 1315 -725 47 -9 93 -18 103 -20 16 -4 17 44 17 890 l0 894 -325 0
-325 0 0 370 0 370 325 0 325 0 0 359 c0 397 6 462 61 617 107 305 331 497
659 564 94 20 128 21 325 17 184 -4 433 -26 483 -42 9 -3 12 -76 12 -318 l0
-314 -212 -6 c-263 -7 -317 -20 -402 -98 -108 -99 -126 -176 -126 -556 l0
-223 355 0 c312 0 355 -2 355 -15 0 -17 -96 -652 -106 -698 l-6 -27 -299 0
-299 0 0 -894 0 -894 78 15 c507 93 987 353 1357 734 379 390 613 864 696
1410 31 205 31 533 0 738 -83 546 -317 1020 -696 1410 -397 409 -901 668
-1461 751 -160 23 -442 33 -587 20z"/>
</g>
</svg>
