<svg height="512" viewBox="0 0 512 512" width="512" xmlns="http://www.w3.org/2000/svg">
  <g>
    <path
      d="m219.255 355.16-28.073 28.273c-.363.365-.778.443-1.063.443h-.002c-.284 0-.698-.076-1.061-.438l-10.427-10.428c-2.928-2.93-7.677-2.929-10.606-.001-2.929 2.929-2.929 7.678 0 10.606l10.427 10.429c3.117 3.116 7.259 4.832 11.666 4.832h.029c4.418-.008 8.566-1.738 11.681-4.874l28.074-28.274c2.918-2.939 2.901-7.688-.038-10.606-2.941-2.918-7.688-2.901-10.607.038zm10.607-204.23c-2.94-2.919-7.688-2.902-10.607.038l-28.073 28.273c-.363.365-.778.442-1.062.442h-.003c-.284 0-.698-.076-1.061-.438l-10.427-10.428c-2.928-2.929-7.677-2.93-10.606-.001s-2.929 7.678 0 10.606l10.427 10.429c3.117 3.117 7.259 4.832 11.667 4.832h.03c4.418-.008 8.566-1.738 11.68-4.874l28.074-28.273c2.917-2.939 2.9-7.687-.039-10.606zm0 102.096c-2.94-2.918-7.688-2.902-10.607.038l-28.073 28.273c-.363.365-.778.442-1.062.442h-.003c-.284 0-.698-.076-1.061-.438l-10.427-10.428c-2.928-2.93-7.677-2.929-10.606-.001-2.929 2.929-2.929 7.678 0 10.606l10.427 10.429c3.117 3.117 7.259 4.832 11.667 4.832h.03c4.418-.008 8.566-1.738 11.68-4.874l28.074-28.273c2.917-2.939 2.9-7.687-.039-10.606zm-47.013-110.481h-24.446c-9.098 0-16.5 7.402-16.5 16.5v54.097c0 9.098 7.402 16.5 16.5 16.5h54.097c9.098 0 16.5-7.402 16.5-16.5v-18.978c0-4.143-3.358-7.5-7.5-7.5s-7.5 3.357-7.5 7.5v18.978c0 .827-.673 1.5-1.5 1.5h-54.097c-.827 0-1.5-.673-1.5-1.5v-54.097c0-.827.673-1.5 1.5-1.5h24.446c4.142 0 7.5-3.357 7.5-7.5s-3.358-7.5-7.5-7.5zm230.011-127.145h-34.38c-4.142 0-7.5 3.357-7.5 7.5s3.358 7.5 7.5 7.5h34.38c12.341 0 22.38 10.04 22.38 22.38v421.84c0 12.34-10.04 22.38-22.38 22.38h-313.72c-12.341 0-22.38-10.04-22.38-22.38v-421.84c0-12.34 10.04-22.38 22.38-22.38h56.803v14.88h-51.823c-6.881 0-12.48 5.599-12.48 12.479v308.854c0 4.143 3.358 7.5 7.5 7.5s7.5-3.357 7.5-7.5v-306.333h35.637c-.821 2.33-1.273 4.832-1.273 7.439v20.802c0 12.374 10.066 22.44 22.439 22.44h185.113c12.373 0 22.439-10.066 22.439-22.44v-20.801c0-2.607-.452-5.11-1.273-7.439h35.637v328.83h-38.919c-20.61 0-37.378 16.77-37.378 37.383v38.927h-222.422v-68.807c0-4.143-3.358-7.5-7.5-7.5s-7.5 3.357-7.5 7.5v71.327c0 6.881 5.599 12.479 12.48 12.479h232.44c1.994.003 3.9-.803 5.304-2.197l.018-.018 76.282-76.292c1.276-1.284 2.057-3.018 2.173-4.824.004-.067.024-339.16.024-339.33 0-6.881-5.599-12.479-12.48-12.479h-51.823v-20.807c-.001-13.494-10.978-24.473-24.471-24.473h-151.174c-10.288 0-19.107 6.386-22.719 15.4h-58.554c-20.612 0-37.38 16.769-37.38 37.38v421.84c0 20.611 16.769 37.38 37.38 37.38h313.72c20.612 0 37.38-16.769 37.38-37.38v-421.84c0-20.611-16.768-37.38-37.38-37.38zm-68.797 439.409v-28.315c0-12.342 10.039-22.383 22.378-22.383h28.313zm-173.12-430.336c0-5.224 4.248-9.473 9.47-9.473h151.174c5.222 0 9.47 4.249 9.47 9.473v27.521c0 5.224-4.248 9.473-9.47 9.473h-151.174c-5.222 0-9.47-4.249-9.47-9.473zm-14.939 43.247c0-2.091.869-3.98 2.262-5.333 3.915 8.311 12.368 14.079 22.147 14.079h151.174c9.778 0 18.232-5.768 22.147-14.079 1.393 1.353 2.262 3.242 2.262 5.333v20.802c0 4.103-3.337 7.44-7.439 7.44h-185.114c-4.102 0-7.439-3.338-7.439-7.44zm-14.101 247.518c0 9.098 7.402 16.5 16.5 16.5h54.097c9.098 0 16.5-7.402 16.5-16.5v-18.978c0-4.143-3.358-7.5-7.5-7.5s-7.5 3.357-7.5 7.5v18.978c0 .827-.673 1.5-1.5 1.5h-54.097c-.827 0-1.5-.673-1.5-1.5v-54.097c0-.827.673-1.5 1.5-1.5h24.446c4.142 0 7.5-3.357 7.5-7.5s-3.358-7.5-7.5-7.5h-24.446c-9.098 0-16.5 7.402-16.5 16.5zm113.722 46.5h106.972c4.142 0 7.5-3.357 7.5-7.5s-3.358-7.5-7.5-7.5h-106.972c-4.142 0-7.5 3.357-7.5 7.5s3.358 7.5 7.5 7.5zm-113.722 55.596c0 9.098 7.402 16.5 16.5 16.5h54.097c9.098 0 16.5-7.402 16.5-16.5v-18.977c0-4.143-3.358-7.5-7.5-7.5s-7.5 3.357-7.5 7.5v18.977c0 .827-.673 1.5-1.5 1.5h-54.097c-.827 0-1.5-.673-1.5-1.5v-54.096c0-.827.673-1.5 1.5-1.5h24.446c4.142 0 7.5-3.357 7.5-7.5s-3.358-7.5-7.5-7.5h-24.446c-9.098 0-16.5 7.402-16.5 16.5zm113.722-25.596h61.972c4.142 0 7.5-3.357 7.5-7.5s-3.358-7.5-7.5-7.5h-61.972c-4.142 0-7.5 3.357-7.5 7.5s3.358 7.5 7.5 7.5zm0-102.096h61.972c4.142 0 7.5-3.357 7.5-7.5s-3.358-7.5-7.5-7.5h-61.972c-4.142 0-7.5 3.357-7.5 7.5s3.358 7.5 7.5 7.5zm0-30h106.972c4.142 0 7.5-3.357 7.5-7.5s-3.358-7.5-7.5-7.5h-106.972c-4.142 0-7.5 3.357-7.5 7.5s3.358 7.5 7.5 7.5zm0-72.097h106.972c4.142 0 7.5-3.357 7.5-7.5s-3.358-7.5-7.5-7.5h-106.972c-4.142 0-7.5 3.357-7.5 7.5s3.358 7.5 7.5 7.5zm0-30h106.972c4.142 0 7.5-3.357 7.5-7.5s-3.358-7.5-7.5-7.5h-106.972c-4.142 0-7.5 3.357-7.5 7.5s3.358 7.5 7.5 7.5z"/>
  </g>
</svg>
