<svg xmlns="http://www.w3.org/2000/svg" width="41.83" height="47.5" viewBox="0 0 41.83 47.5"><defs><style>.a{fill:#32a583;}</style></defs><g transform="translate(-30.556)"><g transform="translate(61.232 8.365)"><g transform="translate(0)"><path class="a" d="M365.39,90.17H362.6a1.394,1.394,0,1,0,0,2.789h2.789a1.394,1.394,0,0,0,0-2.789Z" transform="translate(-361.207 -90.17)"/></g></g><g transform="translate(47.288 0)"><g transform="translate(0 0)"><path class="a" d="M214.943,3.559,213.549.77a1.395,1.395,0,0,0-2.495,1.247l1.394,2.789a1.394,1.394,0,1,0,2.495-1.247Z" transform="translate(-210.907 0)"/></g></g><g transform="translate(57.048 0)"><g transform="translate(0)"><path class="a" d="M319.525.147a1.4,1.4,0,0,0-1.871.624L316.26,3.559a1.394,1.394,0,1,0,2.494,1.247l1.394-2.789A1.394,1.394,0,0,0,319.525.147Z" transform="translate(-316.112 0)"/></g></g><g transform="translate(41.711 8.365)"><path class="a" d="M154.976,90.17h-2.789a1.394,1.394,0,1,0,0,2.789h2.789a1.394,1.394,0,0,0,0-2.789Z" transform="translate(-150.793 -90.17)"/></g><g transform="translate(30.556 22.402)"><g transform="translate(0)"><path class="a" d="M37.528,241.468H31.95a1.394,1.394,0,0,0-1.394,1.394v22.309a1.394,1.394,0,0,0,1.394,1.394h5.577a1.394,1.394,0,0,0,1.394-1.394v-22.31A1.394,1.394,0,0,0,37.528,241.468Z" transform="translate(-30.556 -241.468)"/></g></g><g transform="translate(41.711 8.458)"><path class="a" d="M181.442,108.812a4.385,4.385,0,0,0-4.443-3.7H166.128c.924-1.654,1.42-6.333,1.4-8.244a5.806,5.806,0,0,0-5.82-5.7h-1.151a1.394,1.394,0,0,0-1.394,1.394c0,3.224-1.255,9.044-3.623,11.412a15.445,15.445,0,0,1-4.743,3.064v20.922a32.572,32.572,0,0,0,11.5,2.249h9.121a4.24,4.24,0,0,0,4.181-5.724,4.184,4.184,0,0,0,2.789-5.577,4.185,4.185,0,0,0,2.015-6.825A4.175,4.175,0,0,0,181.442,108.812Z" transform="translate(-150.794 -91.172)"/></g></g></svg>