<svg xmlns="http://www.w3.org/2000/svg" width="33" height="50" viewBox="0 0 33 50"><defs><style>.a{opacity:0.999;}.b{fill:rgba(3,165,67,0.2);stroke:rgba(112,112,112,0.5);}.c{fill:#fff;}.d{fill:rgba(112,112,112,0.56);font-size:12px;font-family:Inter-SemiBold, Inter;font-weight:600;}.e{stroke:none;}.f{fill:none;}</style></defs><g class="a"><g class="b" transform="translate(1)"><circle class="e" cx="15.5" cy="15.5" r="15.5"/><circle class="f" cx="15.5" cy="15.5" r="15"/></g><path d="M0-7.084S3.779-2.649,7.387-2.649s7.045-4.435,7.045-4.435" transform="translate(9.291 25.798)"/><circle cx="2.5" cy="2.5" r="2.5" transform="translate(8 11)"/><circle cx="2.5" cy="2.5" r="2.5" transform="translate(19 11)"/><path class="c" d="M.279,0H9.485c.372,0,.28.3.28.674v.337a.674.674,0,0,1-.674.674H.66a.674.674,0,0,1-.674-.674V.444C-.014.071-.094,0,.279,0Z" transform="translate(11.666 18.714)"/><text class="d" transform="translate(0 35)"><tspan x="0" y="12">Great</tspan></text></g></svg>