<svg xmlns="http://www.w3.org/2000/svg" viewBox="0 0 16 16">
  <title>group</title>
  <g>
    <g>
      <circle cx="6" cy="6" r="3"/>
      <path d="M11.825,12.121a9.049,9.049,0,0,0-11.651,0A.491.491,0,0,0,0,12.5v1.381A1.032,1.032,0,0,0,1,15H11a1,1,0,0,0,1-1V12.643A.61.61,0,0,0,11.825,12.121Z"/>
    </g>
    <g>
      <path d="M10,6a3.966,3.966,0,0,1-.125.987c.042,0,.082.013.125.013A3,3,0,1,0,7.528,2.306,4,4,0,0,1,10,6Z"/>
      <path d="M15.825,10.121A9.037,9.037,0,0,0,9.44,8.02,4.048,4.048,0,0,1,8.292,9.269a10.036,10.036,0,0,1,4.213,2.116A1.457,1.457,0,0,1,13,12.5V13h2a1,1,0,0,0,1-1V10.5A.5.5,0,0,0,15.825,10.121Z"/>
    </g>
  </g>
</svg>
