<svg xmlns="http://www.w3.org/2000/svg" width="20" height="20" viewBox="0 0 20 20">
  <g id="ic_budget_active" transform="translate(3770.871 -4311.96)">
    <rect id="Rectangle_274" data-name="Rectangle 274" width="20" height="20" transform="translate(-3770.871 4311.96)" fill="rgba(255,255,255,0)"/>
    <g id="Group_596" data-name="Group 596" transform="translate(-3770.871 4311.96)">
      <path id="Path_380" data-name="Path 380" d="M13.505,11.04l-.01-1,3.489-.035A7.512,7.512,0,0,0,9.995,3.016L9.96,6.505l-1-.01L9.005,2H9.5A8.51,8.51,0,0,1,18,10.5v.495Z" fill="#fff"/>
      <g id="Group_595" data-name="Group 595">
        <path id="Path_381" data-name="Path 381" d="M9.922,13.028V13.4a.371.371,0,1,1-.742,0v-.343a3.145,3.145,0,0,1-1.015-.189.459.459,0,0,1-.323-.441.429.429,0,0,1,.413-.456,3.715,3.715,0,0,1,.554.155,2.455,2.455,0,0,0,.588.069c.707,0,1.009-.266,1.009-.679,0-.3-.155-.448-.687-.6a6.328,6.328,0,0,1-1.24-.364A1.183,1.183,0,0,1,7.87,9.442,1.524,1.524,0,0,1,9.18,7.88V7.495a.371.371,0,1,1,.742,0v.35a2.884,2.884,0,0,1,.834.147.452.452,0,0,1,.336.435.437.437,0,0,1-.441.455,2.689,2.689,0,0,1-.469-.119A2.031,2.031,0,0,0,9.7,8.707c-.546,0-.861.231-.861.609s.217.476.693.6a5.142,5.142,0,0,1,1.275.385,1.22,1.22,0,0,1,.56,1.114A1.55,1.55,0,0,1,9.922,13.028Z" fill="#fff"/>
      </g>
      <path id="Path_382" data-name="Path 382" d="M15.817,12A6.5,6.5,0,1,1,8,4.183V3.15l-.106.023a7.5,7.5,0,1,0,8.933,8.933L16.85,12Z" fill="#fff"/>
    </g>
  </g>
</svg>
