<svg xmlns="http://www.w3.org/2000/svg" width="20" height="20" viewBox="0 0 20 20">
  <g id="ic_tasks_active" transform="translate(3770.871 -4311.96)">
    <rect id="Rectangle_274" data-name="Rectangle 274" width="20" height="20" transform="translate(-3770.871 4311.96)" fill="rgba(255,255,255,0)"/>
    <path id="Path_220" data-name="Path 220" d="M11.658,5.274,6.677,10.255a1.763,1.763,0,0,0,0,2.491h0a1.763,1.763,0,0,0,2.491,0l4.981-4.981a3.523,3.523,0,0,0,0-4.981h0a3.521,3.521,0,0,0-4.981,0L4.187,7.765a5.283,5.283,0,0,0,0,7.471h0a5.283,5.283,0,0,0,7.471,0l4.981-4.981" transform="translate(-3770.871 4311.96)" fill="none" stroke="#fff" stroke-linecap="round" stroke-linejoin="round" stroke-width="1"/>
  </g>
</svg>
