<svg xmlns="http://www.w3.org/2000/svg" width="20" height="20" viewBox="0 0 20 20">
  <g id="ic_financing" transform="translate(3770.871 -4311.96)">
    <rect id="Rectangle_274" data-name="Rectangle 274" width="20" height="20" transform="translate(-3770.871 4311.96)" fill="none"/>
    <g id="Group_597" data-name="Group 597" transform="translate(-3770.871 4312.447)">
      <path id="Path_383" data-name="Path 383" d="M14.315,6.653h0a2.463,2.463,0,0,1-2.522.6l-.643-.214A2.465,2.465,0,0,0,9,7.322L6.776,8.807l.79.79a.978.978,0,0,0,.693.287h2.825l3.231,2.154,2.154-2.154Z" fill="none" stroke="#a1b0b7" stroke-linecap="round" stroke-linejoin="round" stroke-width="1"/>
      <path id="Path_384" data-name="Path 384" d="M19,8.955,16.039,4.513,13.911,6.048l2.961,4.442Z" fill="none" stroke="#a1b0b7" stroke-linecap="round" stroke-linejoin="round" stroke-width="1"/>
      <path id="Path_385" data-name="Path 385" d="M1,8.955,3.961,4.513,6.089,6.048,3.127,10.49Z" fill="none" stroke="#a1b0b7" stroke-linecap="round" stroke-linejoin="round" stroke-width="1"/>
      <path id="Path_386" data-name="Path 386" d="M11.084,9.884l2.991,1.994a1.077,1.077,0,0,1,.188,1.633l-2,2.136a2.152,2.152,0,0,1-2.843.264L6.78,13.981a6.3,6.3,0,0,1-1.7-2.1h0A6.292,6.292,0,0,0,3.9,10.238l-.354-.354L5.7,6.653h0a2.465,2.465,0,0,0,2.523.6l.642-.214a2.457,2.457,0,0,1,1.107-.1" fill="none" stroke="#a1b0b7" stroke-linecap="round" stroke-linejoin="round" stroke-width="1"/>
    </g>
  </g>
</svg>
