<svg xmlns="http://www.w3.org/2000/svg" xmlns:xlink="http://www.w3.org/1999/xlink" width="20" height="20" viewBox="0 0 20 20">
  <defs>
    <clipPath id="clip-path">
      <rect width="20" height="20" fill="none"/>
    </clipPath>
  </defs>
  <g id="ic_metrics" clip-path="url(#clip-path)">
    <rect id="Rectangle_274" data-name="Rectangle 274" width="20" height="20" fill="rgba(255,255,255,0)"/>
    <g id="Group_416" data-name="Group 416" transform="translate(2.5 2.5)">
      <path id="Path_243" data-name="Path 243" d="M2.5,12.045V5A2.5,2.5,0,0,1,5,2.5H15a2.5,2.5,0,0,1,1.768.732" transform="translate(-2.5 -2.5)" fill="none" stroke="#a1b0b7" stroke-linecap="round" stroke-linejoin="round" stroke-width="1"/>
      <path id="Path_244" data-name="Path 244" d="M14.773,5.227H17.5V7.955" transform="translate(-2.5 -2.5)" fill="none" stroke="#a1b0b7" stroke-linecap="round" stroke-linejoin="round" stroke-width="1"/>
      <path id="Path_245" data-name="Path 245" d="M17.5,5.227l-6.818,6.818L7.955,9.318,2.5,14.773V15A2.5,2.5,0,0,0,5,17.5H15A2.5,2.5,0,0,0,17.5,15V10.682" transform="translate(-2.5 -2.5)" fill="none" stroke="#a1b0b7" stroke-linecap="round" stroke-linejoin="round" stroke-width="1"/>
    </g>
  </g>
</svg>
