<svg xmlns="http://www.w3.org/2000/svg" width="20" height="20" viewBox="0 0 20 20"><g id="ic_tasks_active" transform="translate(3770.871 -4311.96)"><rect id="Rectangle_274" width="20" height="20" fill="rgba(255,255,255,0)" data-name="Rectangle 274" transform="translate(-3770.871 4311.96)"/><g id="Group_311" data-name="Group 311" transform="translate(-3769.17 4313.578)"><path id="Path_225" fill="none" stroke="#fff" stroke-linecap="round" stroke-linejoin="round" stroke-width="1" d="M-11.8,28.857A7.265,7.265,0,0,1-4.88,33.91" data-name="Path 225" transform="translate(20.3 -27.618)"/><path id="Path_226" fill="none" stroke="#fff" stroke-linecap="round" stroke-linejoin="round" stroke-width="1" d="M-10.561,30.449-11.8,28.857l1.592-1.239" data-name="Path 226" transform="translate(20.3 -27.618)"/><path id="Path_227" fill="none" stroke="#fff" stroke-linecap="round" stroke-linejoin="round" stroke-width="1" d="M-19.061,36.118A7.265,7.265,0,0,1-14.008,29.2" data-name="Path 227" transform="translate(20.3 -27.618)"/><path id="Path_228" fill="none" stroke="#fff" stroke-linecap="round" stroke-linejoin="round" stroke-width="1" d="M-17.469,34.88l-1.592,1.239L-20.3,34.526" data-name="Path 228" transform="translate(20.3 -27.618)"/><path id="Path_229" fill="none" stroke="#fff" stroke-linecap="round" stroke-linejoin="round" stroke-width="1" d="M-11.8,43.38a7.266,7.266,0,0,1-6.92-5.054" data-name="Path 229" transform="translate(20.3 -27.618)"/><path id="Path_230" fill="none" stroke="#fff" stroke-linecap="round" stroke-linejoin="round" stroke-width="1" d="M-13.038,41.788-11.8,43.38l-1.592,1.239" data-name="Path 230" transform="translate(20.3 -27.618)"/><path id="Path_231" fill="none" stroke="#fff" stroke-linecap="round" stroke-linejoin="round" stroke-width="1" d="M-4.538,36.118a7.264,7.264,0,0,1-5.054,6.92" data-name="Path 231" transform="translate(20.3 -27.618)"/><path id="Path_232" fill="none" stroke="#fff" stroke-linecap="round" stroke-linejoin="round" stroke-width="1" d="M-6.13,37.357l1.592-1.239L-3.3,37.71" data-name="Path 232" transform="translate(20.3 -27.618)"/></g></g></svg>