<svg xmlns="http://www.w3.org/2000/svg" xmlns:xlink="http://www.w3.org/1999/xlink" width="20" height="20" viewBox="0 0 20 20">
  <defs>
    <clipPath id="clip-path">
      <rect width="20" height="20" fill="none"/>
    </clipPath>
  </defs>
  <g id="ic_teams" clip-path="url(#clip-path)">
    <rect id="Rectangle_274" data-name="Rectangle 274" width="20" height="20" fill="rgba(255,255,255,0)"/>
    <g id="Group_417" data-name="Group 417" transform="translate(1 3.11)">
      <path id="Path_125" data-name="Path 125" d="M5.769,1.077A2.666,2.666,0,0,1,8.462,3.769a2.692,2.692,0,0,1-5.385,0A2.666,2.666,0,0,1,5.769,1.077M5.769,0A3.816,3.816,0,0,0,2,3.769,3.816,3.816,0,0,0,5.769,7.539,3.816,3.816,0,0,0,9.539,3.769,3.816,3.816,0,0,0,5.769,0Z" transform="translate(0.154)" fill="#a1b0b7"/>
      <path id="Path_126" data-name="Path 126" d="M12.154,3.077a1.017,1.017,0,0,1,1.077,1.077,1.017,1.017,0,0,1-1.077,1.077,1.017,1.017,0,0,1-1.077-1.077,1.017,1.017,0,0,1,1.077-1.077m0-1.077a2.154,2.154,0,1,0,2.154,2.154A2.16,2.16,0,0,0,12.154,2Z" transform="translate(0.77 0.154)" fill="#a1b0b7"/>
      <path id="Path_127" data-name="Path 127" d="M8.616,8H3.231A3.173,3.173,0,0,0,0,11.231v2.154H1.077V11.231A2.16,2.16,0,0,1,3.231,9.077H8.616a2.16,2.16,0,0,1,2.154,2.154v2.154h1.077V11.231A3.173,3.173,0,0,0,8.616,8Z" transform="translate(0 0.616)" fill="#a1b0b7"/>
      <path id="Path_128" data-name="Path 128" d="M13.354,7H11.2A3.514,3.514,0,0,0,8.4,8.508l.754.754A2.549,2.549,0,0,1,11.2,8.077h2.154a2.16,2.16,0,0,1,2.154,2.154v2.154h1.077V10.231A3.173,3.173,0,0,0,13.354,7Z" transform="translate(0.646 0.539)" fill="#a1b0b7"/>
    </g>
  </g>
</svg>
