<svg xmlns="http://www.w3.org/2000/svg" width="15.63" height="22.229" viewBox="0 0 15.63 22.229"><g transform="translate(-76)"><g transform="translate(76)"><path d="M83.815,0a7.816,7.816,0,0,0-6.648,11.924l6.2,10a.651.651,0,0,0,.553.308h.005a.651.651,0,0,0,.554-.317l6.045-10.094A7.817,7.817,0,0,0,83.815,0ZM89.41,11.15l-5.5,9.177-5.64-9.089A6.517,6.517,0,1,1,89.41,11.15Z" transform="translate(-76)"/></g><g transform="translate(78.907 2.98)"><path d="M170.908,90a4.908,4.908,0,1,0,4.908,4.908A4.913,4.913,0,0,0,170.908,90Zm0,8.19a3.283,3.283,0,1,1,3.277-3.283A3.285,3.285,0,0,1,170.908,98.19Z" transform="translate(-166 -90)"/></g></g></svg>