<svg xmlns="http://www.w3.org/2000/svg" width="135.7" height="138" viewBox="0 0 135.7 138"><defs><style>.a{fill:#f7d881;}.b{fill:#78b75b;}.c{fill:#96cc7f;}.d{fill:#c1c8d1;}.e{fill:#f5b95b;}.f{fill:#ebf7fe;}.g{fill:#c18e5c;}</style></defs><rect class="a" width="87" height="78" rx="4" transform="translate(5 60)"/><path class="b" d="M92.2,48.1l-7.613-1.7A31.188,31.188,0,0,1,64.6,32,31.188,31.188,0,0,1,44.613,46.4L37,48.1A64.4,64.4,0,0,0,62.76,99.62L64.6,101l1.84-1.38A64.4,64.4,0,0,0,92.2,48.1Z" transform="translate(43.5 37)"/><path class="c" d="M52.778,90.305c18.4-4.968,32.522-21.758,36.2-42.918L84.587,46.4A31.188,31.188,0,0,1,64.6,32,31.188,31.188,0,0,1,44.613,46.4L37,48.1A64.4,64.4,0,0,0,52.778,90.305Z" transform="translate(43.5 37)"/><path class="d" d="M9.3,61.8H20.8v-23a23,23,0,1,1,46,0v23H78.3a9.407,9.407,0,0,1,2.3.322V38.8A36.8,36.8,0,1,0,7,38.8V62.122A9.407,9.407,0,0,1,9.3,61.8Z" transform="translate(4.5 -2)"/><path class="e" d="M2,36H29.6V77.4H2Z" transform="translate(-2 42.2)"/><g transform="translate(0 78.2)"><path class="d" d="M2,41H29.6v4.6H2Z" transform="translate(-2 -29.5)"/><path class="d" d="M2,47H29.6v4.6H2Z" transform="translate(-2 -21.7)"/><path class="d" d="M32.8,60.265V40.6a4.6,4.6,0,1,0-9.2,0V60.265a9.2,9.2,0,1,0,9.2,0Z" transform="translate(20.1 -36)"/></g><ellipse class="f" cx="14" cy="13.5" rx="14" ry="13.5" transform="translate(94 90)"/><path class="g" d="M53.94,65.885a2.3,2.3,0,0,1-1.84-.92l-6.9-9.2L48.88,53l4.6,6.233L63.324,39.55l4.094,2.07-11.5,23a2.3,2.3,0,0,1-1.84,1.265Z" transform="translate(54.159 46.815)"/></svg>