<svg width="25" height="24" viewBox="0 0 25 24" fill="none" xmlns="http://www.w3.org/2000/svg">
<path d="M4.83899 11.432C4.83815 10.45 5.03207 9.47767 5.40952 8.57115C5.78698 7.66464 6.34048 6.84198 7.03798 6.1508C7.73549 5.45962 8.56315 4.91364 9.47306 4.54445C10.383 4.17527 11.3571 3.99022 12.339 4C13.3261 3.99214 14.3049 4.18077 15.2184 4.5549C16.1319 4.92903 16.9618 5.48118 17.6598 6.17919C18.3578 6.8772 18.91 7.70712 19.2841 8.62061C19.6582 9.5341 19.8469 10.5129 19.839 11.5" stroke="#60727B" stroke-miterlimit="10" stroke-linecap="square" stroke-linejoin="round"/>
<path d="M4.83899 12.36V19.469C4.87446 19.745 5.01326 19.9974 5.2274 20.1752C5.44155 20.3529 5.71512 20.4429 5.99299 20.427H18.685C18.9629 20.4429 19.2364 20.3529 19.4506 20.1752C19.6647 19.9974 19.8035 19.745 19.839 19.469V12.36" stroke="#60727B" stroke-miterlimit="10" stroke-linecap="square" stroke-linejoin="round"/>
<path d="M9.83899 20.24C9.83899 20.5683 9.90365 20.8934 10.0293 21.1967C10.1549 21.5 10.3391 21.7756 10.5712 22.0078C10.8034 22.2399 11.079 22.4241 11.3823 22.5497C11.6856 22.6753 12.0107 22.74 12.339 22.74C12.6673 22.74 12.9924 22.6753 13.2957 22.5497C13.599 22.4241 13.8746 22.2399 14.1068 22.0078C14.3389 21.7756 14.5231 21.5 14.6487 21.1967C14.7743 20.8934 14.839 20.5683 14.839 20.24" stroke="#60727B" stroke-miterlimit="10" stroke-linejoin="round"/>
<path d="M12.339 4C13.1674 4 13.839 3.32843 13.839 2.5C13.839 1.67157 13.1674 1 12.339 1C11.5106 1 10.839 1.67157 10.839 2.5C10.839 3.32843 11.5106 4 12.339 4Z" stroke="#60727B" stroke-miterlimit="10" stroke-linecap="square" stroke-linejoin="round"/>
</svg>
