<?xml version="1.0" encoding="iso-8859-1"?>
<!-- Generator: Adobe Illustrator 16.0.0, SVG Export Plug-In . SVG Version: 6.00 Build 0)  -->
<!DOCTYPE svg PUBLIC "-//W3C//DTD SVG 1.1//EN" "http://www.w3.org/Graphics/SVG/1.1/DTD/svg11.dtd">
<svg version="1.1" id="Capa_1" xmlns="http://www.w3.org/2000/svg" xmlns:xlink="http://www.w3.org/1999/xlink" x="0px" y="0px"
	 width="70.072px" height="70.072px" viewBox="0 0 70.072 70.072" style="enable-background:new 0 0 70.072 70.072;"
	 xml:space="preserve">
<g>
	<path d="M47.288,48.218c0-8.162-6.64-14.803-14.799-14.803v-2.494c9.537-0.002,17.297,7.757,17.297,17.292L47.288,48.218z
		 M45.471,48.213c-0.005-7.153-5.826-12.979-12.987-12.979l0.005,2.5c5.778,0,10.479,4.704,10.479,10.479H45.471L45.471,48.213z
		 M32.486,39.693l0.004,2.497c3.321-0.004,6.022,2.699,6.022,6.022h2.496C41.013,43.516,37.19,39.695,32.486,39.693z M65.097,32.19
		h-6.984h-0.929c-2.069,0-3.743,1.674-3.743,3.745v0.406c0,2.076,1.674,3.748,3.743,3.748h6.987h0.926
		c2.066,0,3.745-1.681,3.745-3.748l-0.004-0.41C68.842,33.865,67.163,32.19,65.097,32.19z M68.842,26.588v0.416
		c0,2.07-1.674,3.745-3.743,3.745h-0.928h-6.059h-0.931c-2.062,0-3.741-1.67-3.741-3.745v-0.406c0-2.072,1.679-3.747,3.745-3.747
		h0.927v-0.005h2.043V7.505L26.036,7.5v8.376c3.265-1.833,6.131-3.424,7.525-4.146c4.428-2.296,6.974,0.504,6.207,3.827
		c-0.589,2.564-4.938,5.388-9.523,8.929c-0.906,0.704-2.49,1.747-4.208,2.836v33.99h34.12v-2.536h-2.974
		c-2.067,0-3.741-1.681-3.741-3.743v-0.418c0-2.066,1.67-3.74,3.741-3.74h0.931h6.059h0.924c2.068,0,3.743,1.67,3.747,3.74
		l-0.004,0.409c0.004,2.071-1.675,3.747-3.748,3.747h-0.924v0.005h-0.724v6.567c0,2.598-2.128,4.729-4.732,4.729H27.476
		c-2.604,0-4.734-2.131-4.734-4.729V59.96h-5.688c0,0-8.404-0.031-12.961-6.918c-0.049-0.071-0.096-0.135-0.145-0.205
		c-0.191-0.302-0.365-0.623-0.539-0.947c-0.147-0.273-0.292-0.565-0.433-0.862c-0.133-0.282-0.262-0.557-0.383-0.857
		c-0.24-0.606-0.448-1.241-0.633-1.923c-0.051-0.203-0.089-0.422-0.14-0.632c-0.138-0.589-0.25-1.207-0.341-1.854
		c-0.035-0.249-0.067-0.497-0.096-0.755c-0.089-0.881-0.152-1.796-0.152-2.781c0-11.063,5.169-15.748,8.697-17.199
		c0.014-0.009,6.513-3.73,12.814-7.292V4.734c0-2.604,2.13-4.734,4.734-4.734h31.238c2.601,0,4.731,2.131,4.731,4.734v18.118h1.651
		C67.168,22.847,68.842,24.526,68.842,26.588z M40.73,65.339c0,1.314,1.059,2.372,2.365,2.372c1.312,0,2.37-1.058,2.37-2.372
		c0-1.31-1.059-2.367-2.37-2.367C41.789,62.972,40.73,64.034,40.73,65.339z M48.664,3.983c0-0.321-0.254-0.575-0.57-0.575H38.1
		c-0.316,0-0.574,0.254-0.574,0.575c0,0.315,0.258,0.57,0.574,0.57h9.994C48.408,4.553,48.664,4.298,48.664,3.983z M65.097,41.534
		h-0.926h-6.987c-2.064,0-3.743,1.679-3.743,3.745v0.41c0,2.071,1.674,3.746,3.743,3.746h0.929h6.059h0.926
		c2.071,0,3.741-1.675,3.745-3.746l-0.004-0.41C68.838,43.213,67.168,41.534,65.097,41.534z"/>
</g>
<g>
</g>
<g>
</g>
<g>
</g>
<g>
</g>
<g>
</g>
<g>
</g>
<g>
</g>
<g>
</g>
<g>
</g>
<g>
</g>
<g>
</g>
<g>
</g>
<g>
</g>
<g>
</g>
<g>
</g>
</svg>
