<svg xmlns="http://www.w3.org/2000/svg" width="157.594" height="98.437" viewBox="0 0 157.594 98.437"><defs><style>.a{fill:rgba(109,36,162,0.1);}.b{fill:#afb0b4;}.c{fill:#88898e;}.d{fill:#cf442b;}.e{fill:#b83c26;}.f{fill:#ebebec;}.g{fill:#d7d8d9;}.h{fill:#f58f6c;}.i{fill:#f07b52;}.j{fill:#fdd042;}.k{fill:#e1a527;}.l{fill:#606268;}</style></defs><path class="a" d="M35.024-12.448c32.705,24,69.639-16.1,110.6,37.432s.737,56-44,56S5.107,77.543,5.107,55,2.319-36.448,35.024-12.448Z" transform="translate(-5.048 17.453)"/><path class="b" d="M300.051,332.8h-8.5a1.417,1.417,0,0,0-1.417,1.417v26.917a1.417,1.417,0,0,0,1.417,1.417h8.5a1.417,1.417,0,0,0,1.417-1.417V334.217A1.417,1.417,0,0,0,300.051,332.8Z" transform="translate(-221.516 -274.569)"/><path class="c" d="M220.384,332.8H206.218a1.417,1.417,0,0,0-1.417,1.417v26.917a1.417,1.417,0,0,0,1.417,1.417h14.167a1.417,1.417,0,0,0,1.417-1.417V334.217A1.417,1.417,0,0,0,220.384,332.8Z" transform="translate(-150.349 -274.569)"/><path class="d" d="M129.184,85.333H81.017a12.764,12.764,0,0,0-12.75,12.75v29.75a1.417,1.417,0,0,0,1.417,1.417h70.834a1.417,1.417,0,0,0,1.417-1.417V98.083A12.764,12.764,0,0,0,129.184,85.333Z" transform="translate(-36.482 -68.185)"/><path class="e" d="M73.934,127.833V98.083a12.764,12.764,0,0,1,12.75-12.75H81.017a12.764,12.764,0,0,0-12.75,12.75v29.75a1.417,1.417,0,0,0,1.417,1.417H75.35A1.417,1.417,0,0,1,73.934,127.833Z" transform="translate(-36.482 -68.185)"/><path class="f" d="M43.917,162.133H1.417A1.417,1.417,0,0,0,0,163.55v28.333A1.417,1.417,0,0,0,1.417,193.3h42.5a1.417,1.417,0,0,0,1.417-1.417V163.55A1.417,1.417,0,0,0,43.917,162.133Z" transform="translate(20.452 -132.236)"/><path class="g" d="M23.552,200.14l21.782-17.221V179.2H0v3.719L21.782,200.14A1.43,1.43,0,0,0,23.552,200.14Z" transform="translate(20.452 -146.469)"/><path class="f" d="M45.264,163.081a1.417,1.417,0,0,0-1.337-.948H1.427a1.417,1.417,0,0,0-.885,2.523l21.25,17a1.43,1.43,0,0,0,1.77,0l21.25-17A1.417,1.417,0,0,0,45.264,163.081Z" transform="translate(20.441 -132.236)"/><path class="h" d="M38.12,371.117H66.354a1.417,1.417,0,0,0,1.369-1.052l5.386-20.2H41.943l-5.192,19.468A1.417,1.417,0,0,0,38.12,371.117Z" transform="translate(-10.158 -288.802)"/><path class="i" d="M221.7,85.333H179.2a12.764,12.764,0,0,1,12.75,12.75V129.25h41.083a1.417,1.417,0,0,0,1.417-1.417V98.083A12.764,12.764,0,0,0,221.7,85.333Z" transform="translate(-128.998 -68.185)"/><circle class="j" cx="7.083" cy="7.083" r="7.083" transform="translate(77.119 25.648)"/><circle class="k" cx="4.25" cy="4.25" r="4.25" transform="translate(79.952 28.481)"/><path class="l" d="M376.884,31.167a1.417,1.417,0,0,1-1.417-1.417V1.417a1.417,1.417,0,0,1,2.833,0V29.75A1.417,1.417,0,0,1,376.884,31.167Z" transform="translate(-292.682 2.981)"/><path class="j" d="M388.217,0H376.884a1.417,1.417,0,0,0-1.417,1.417V7.083A1.417,1.417,0,0,0,376.884,8.5h11.333a1.417,1.417,0,0,0,1.417-1.417V1.417A1.417,1.417,0,0,0,388.217,0Z" transform="translate(-292.682 2.981)"/><g transform="translate(71.452 52.565)"><path class="e" d="M327.033,301.5H308.617a1.417,1.417,0,0,1,0-2.833h18.417a1.417,1.417,0,0,1,0,2.833Z" transform="translate(-307.2 -298.667)"/><path class="e" d="M447.983,301.5H445.15a1.417,1.417,0,1,1,0-2.833h2.833a1.417,1.417,0,1,1,0,2.833Z" transform="translate(-421.066 -298.667)"/></g></svg>