<svg xmlns="http://www.w3.org/2000/svg" width="82.915" height="94.153" viewBox="0 0 82.915 94.153"><defs><style>.a{fill:#f57010;}</style></defs><g transform="translate(60.804 72.044)"><g transform="translate(0 0)"><path class="a" d="M8.292,5.528H2.764A2.764,2.764,0,1,1,2.764,0H8.292a2.764,2.764,0,1,1,0,5.528Z"/></g></g><g transform="translate(33.165 83.099)"><g transform="translate(0 0)"><path class="a" d="M8,4,5.237,9.528A2.764,2.764,0,0,1,.293,7.055L3.056,1.528A2.764,2.764,0,1,1,8,4Z"/></g></g><g transform="translate(52.512 83.099)"><g transform="translate(0 0)"><path class="a" d="M6.765,10.764A2.77,2.77,0,0,1,3.056,9.528L.293,4A2.764,2.764,0,1,1,5.237,1.528L8,7.055A2.764,2.764,0,0,1,6.765,10.764Z"/></g></g><g transform="translate(22.111 72.044)"><g transform="translate(0 0)"><path class="a" d="M8.292,5.528H2.764A2.764,2.764,0,0,1,2.764,0H8.292a2.764,2.764,0,0,1,0,5.528Z"/></g></g><g transform="translate(0 0)"><g transform="translate(0)"><path class="a" d="M13.819,49.749H2.764A2.764,2.764,0,0,1,0,46.985V2.764A2.764,2.764,0,0,1,2.764,0H13.819a2.764,2.764,0,0,1,2.764,2.764V46.985A2.764,2.764,0,0,1,13.819,49.749Z"/></g></g><g transform="translate(22.111 0)"><path class="a" d="M60.749,42.423c-.488,4.287-4.492,7.326-8.808,7.326H30.394c1.831,3.279,2.814,12.553,2.771,16.342a11.509,11.509,0,0,1-11.537,11.3H19.347a2.762,2.762,0,0,1-2.764-2.764C16.583,68.232,14.094,56.7,9.4,52c-3.159-3.159-5.86-4.3-9.4-6.074V4.458C5.422,2.651,12.306,0,22.8,0h18.08c5.957,0,10.6,5.517,8.288,11.347A8.293,8.293,0,0,1,54.693,22.4,8.3,8.3,0,0,1,58.688,35.93,8.274,8.274,0,0,1,60.749,42.423Z" transform="translate(0 0)"/></g></svg>
