<svg xmlns="http://www.w3.org/2000/svg" width="59.811" height="60.707" viewBox="0 0 59.811 60.707"><defs><style>.a{fill:#ffb26c;}.b{fill:#ff8e31;}.c{fill:#ff5252;}.d{fill:#ffddd2;}.e{fill:#ffcbbd;}.f{fill:#fff;opacity:0.4;}</style></defs><circle class="a" cx="20" cy="20" r="20" transform="translate(0.997 1)"/><path class="b" d="M36.618,8.382A19.977,19.977,0,0,1,8.382,36.618,19.979,19.979,0,1,0,36.618,8.382Z" transform="translate(-2.003 -2)"/><path class="b" d="M21.829,29.259l-4.658,3.363a2,2,0,0,1-3.089-2.189l1.5-5.082a2,2,0,0,0-.85-2.258l-3.8-2.4A2,2,0,0,1,12,17h5.264a2,2,0,0,0,1.876-1.309l1.983-5.382a2,2,0,0,1,3.754,0l1.983,5.382A2,2,0,0,0,28.736,17H34a2,2,0,0,1,1.068,3.691l-3.8,2.4a2,2,0,0,0-.85,2.258l1.5,5.082a2,2,0,0,1-3.089,2.189l-4.658-3.363a2,2,0,0,0-2.342,0Z" transform="translate(-2.003 -2)"/><path class="c" d="M25.947,19,23,11l-2.947,8H12l6.361,4.018L16,31l7-5.053L30,31l-2.361-7.982L34,19Z" transform="translate(-2.003 -2)"/><path class="d" d="M58.326,49.324a9.129,9.129,0,0,1-2.617-5.445,9.124,9.124,0,0,0-2.618-5.446L45.456,30.8a2,2,0,0,0-2.829,0l-2.121,2.122a2,2,0,0,0-2.828,0L35.556,35.04a2,2,0,0,0-2.828,0l-2.121,2.121-5.3-5.3A2.5,2.5,0,1,0,21.772,35.4L35.556,49.182l-7.749-1.55a3.056,3.056,0,0,0-1.477,5.924L36.4,56.575a9.129,9.129,0,0,0,2.622.385h3.365a9.128,9.128,0,0,1,6.454,2.673L51.2,62l9.9-9.9Z" transform="translate(-2.003 -2)"/><g transform="translate(22.148 29.52)"><path class="e" d="M36.891,40.891l-4.914-5.1-1.37,1.37,4.949,4.95Z" transform="translate(-24.151 -31.52)"/><path class="e" d="M35.556,35.04l4.95,4.95L41.775,38.8,36.906,33.69Z" transform="translate(-24.151 -31.52)"/><path class="e" d="M40.506,32.919l4.95,4.949,1.435-1.4L41.905,31.52Z" transform="translate(-24.151 -31.52)"/><path class="e" d="M50.836,57.633a9.128,9.128,0,0,0-6.454-2.673H41.017a9.127,9.127,0,0,1-2.621-.385L28.33,51.556a3.056,3.056,0,0,1-2.087-3.668c.014-.058.041-.109.059-.165a3.047,3.047,0,0,0,.028,5.833L36.4,56.575a9.129,9.129,0,0,0,2.622.385h3.365a9.128,9.128,0,0,1,6.454,2.673L51.2,62l2-2Z" transform="translate(-24.151 -31.52)"/></g><path class="f" d="M7,24a1,1,0,0,1-1-1A16.894,16.894,0,0,1,15.562,7.709a1,1,0,0,1,.876,1.8A14.908,14.908,0,0,0,8,23,1,1,0,0,1,7,24Z" transform="translate(-2.003 -2)"/><path class="f" d="M9.771,33a1,1,0,0,1-.828-.436,16.917,16.917,0,0,1-2.1-4.252,1,1,0,1,1,1.9-.624A14.94,14.94,0,0,0,10.6,31.437,1,1,0,0,1,9.771,33Z" transform="translate(-2.003 -2)"/><path d="M40.376,31.635a3,3,0,0,0-3.4.576l-1.553,1.554a3.074,3.074,0,0,0-3.4.568L30.6,35.747l-4.6-4.6a3.585,3.585,0,0,0-4.95,0,3.5,3.5,0,0,0,0,4.95l11.46,11.457L28,46.652a4.056,4.056,0,0,0-1.961,7.862L36.1,57.533a10.127,10.127,0,0,0,2.91.427h3.365a8.074,8.074,0,0,1,5.747,2.38L50.5,62.707l1.414-1.414-2.367-2.367a10.06,10.06,0,0,0-7.161-2.966H39.017a8.092,8.092,0,0,1-2.335-.343L26.617,52.6a2.056,2.056,0,0,1,.994-3.985l7.749,1.55a1,1,0,0,0,.9-1.688L22.475,34.687a1.5,1.5,0,0,1,0-2.122,1.536,1.536,0,0,1,2.121,0L34.849,42.818,36.263,41.4l-4.242-4.243,1.415-1.414a1.022,1.022,0,0,1,1.413,0L39.8,40.7l1.414-1.414L36.97,35.04l1.415-1.415a1.027,1.027,0,0,1,1.414,0l4.95,4.95,1.414-1.414L41.92,32.919,43.334,31.5a1,1,0,0,1,1.415,0l7.635,7.636a8.154,8.154,0,0,1,2.331,4.849,10.169,10.169,0,0,0,2.9,6.043l2.785,2.78,1.414-1.414-2.776-2.776a8.166,8.166,0,0,1-2.33-4.849A10.159,10.159,0,0,0,53.8,37.726L46.163,30.09a3,3,0,0,0-4.243,0Z" transform="translate(-2.003 -2)"/><path d="M15.422,31.816a1,1,0,0,0,1.163,0L23,27.181l6.415,4.63a1,1,0,0,0,1.544-1.095l-2.147-7.257,5.722-3.613A1,1,0,0,0,34,18H26.645l-2.707-7.346a1,1,0,0,0-1.876,0L19.355,18H12a1,1,0,0,0-.534,1.846l5.722,3.613-2.147,7.257a1,1,0,0,0,.381,1.1ZM15.456,20h4.6a1,1,0,0,0,.938-.654L23,13.893l2.009,5.453a1,1,0,0,0,.938.654h4.6l-3.439,2.172A1,1,0,0,0,26.68,23.3l1.53,5.174-4.625-3.339a1,1,0,0,0-1.17,0l-4.625,3.34L19.32,23.3a1,1,0,0,0-.425-1.129Z" transform="translate(-2.003 -2)"/><path d="M23,44V42A18.978,18.978,0,1,1,41.62,26.8l1.96.4A21,21,0,1,0,23,44Z" transform="translate(-2.003 -2)"/><path d="M32,9h2v2H32Z" transform="translate(-2.003 -2)"/><path d="M30,11h2v2H30Z" transform="translate(-2.003 -2)"/><path d="M34,11h2v2H34Z" transform="translate(-2.003 -2)"/><path d="M32,13h2v2H32Z" transform="translate(-2.003 -2)"/><path d="M48,20h2v2H48Z" transform="translate(-2.003 -2)"/><path d="M46,22h2v2H46Z" transform="translate(-2.003 -2)"/><path d="M50,22h2v2H50Z" transform="translate(-2.003 -2)"/><path d="M48,24h2v2H48Z" transform="translate(-2.003 -2)"/><path d="M47,13h2v2H47Z" transform="translate(-2.003 -2)"/><path d="M34,21h2v2H34Z" transform="translate(-2.003 -2)"/></svg>