<?xml version="1.0" encoding="UTF-8"?>
<svg xmlns="http://www.w3.org/2000/svg" xmlns:xlink="http://www.w3.org/1999/xlink" width="24pt" height="24pt" viewBox="0 0 24 24" version="1.1">
<g id="surface1">
<path style=" stroke:none;fill-rule:nonzero;fill:rgb(0%,0%,0%);fill-opacity:1;" d="M 9.320312 1.28125 C 8.46875 1.390625 7.707031 1.699219 7.015625 2.21875 C 6.761719 2.40625 6.304688 2.867188 6.109375 3.132812 C 5.613281 3.800781 5.328125 4.488281 5.199219 5.320312 C 5.179688 5.460938 5.167969 5.652344 5.167969 5.953125 C 5.164062 6.390625 5.179688 6.570312 5.25 6.914062 C 5.625 8.75 7.105469 10.21875 8.945312 10.582031 C 9.28125 10.648438 9.496094 10.667969 9.890625 10.667969 C 10.65625 10.667969 11.316406 10.511719 11.992188 10.171875 C 13.101562 9.613281 13.957031 8.625 14.34375 7.464844 C 14.53125 6.90625 14.597656 6.429688 14.582031 5.816406 C 14.546875 4.609375 14.082031 3.527344 13.222656 2.65625 C 12.5 1.921875 11.597656 1.460938 10.574219 1.304688 C 10.308594 1.261719 9.582031 1.25 9.320312 1.28125 Z M 9.320312 1.28125 "/>
<path style=" stroke:none;fill-rule:nonzero;fill:rgb(0%,0%,0%);fill-opacity:1;" d="M 5.242188 9.480469 C 4.695312 9.847656 4.265625 10.207031 3.847656 10.640625 C 2.5625 11.96875 1.769531 13.636719 1.546875 15.46875 C 1.527344 15.644531 1.484375 16.253906 1.480469 16.449219 C 1.480469 16.457031 4.128906 16.460938 7.367188 16.460938 L 13.253906 16.460938 L 13.265625 16.296875 C 13.300781 15.765625 13.34375 15.511719 13.453125 15.105469 C 13.621094 14.496094 13.949219 13.859375 14.375 13.332031 C 14.550781 13.113281 14.894531 12.773438 15.132812 12.582031 C 15.550781 12.246094 16.097656 11.933594 16.546875 11.777344 C 16.660156 11.738281 16.753906 11.695312 16.757812 11.683594 C 16.761719 11.675781 16.6875 11.566406 16.597656 11.441406 C 16.007812 10.664062 15.28125 9.984375 14.460938 9.449219 L 14.203125 9.28125 L 14.164062 9.324219 C 13.707031 9.871094 13.398438 10.15625 12.917969 10.480469 C 11.699219 11.304688 10.195312 11.601562 8.75 11.296875 C 7.640625 11.0625 6.609375 10.472656 5.871094 9.648438 C 5.75 9.515625 5.628906 9.375 5.597656 9.34375 L 5.539062 9.28125 Z M 5.242188 9.480469 "/>
<path style=" stroke:none;fill-rule:nonzero;fill:rgb(0%,0%,0%);fill-opacity:1;" d="M 17.914062 12.226562 C 16.875 12.308594 15.910156 12.761719 15.1875 13.511719 C 14.550781 14.171875 14.175781 14.929688 14.03125 15.863281 C 13.980469 16.183594 13.984375 16.800781 14.042969 17.125 C 14.117188 17.582031 14.238281 17.957031 14.429688 18.347656 C 15.074219 19.664062 16.371094 20.558594 17.839844 20.703125 C 18.113281 20.726562 18.648438 20.714844 18.90625 20.671875 C 19.789062 20.535156 20.570312 20.144531 21.214844 19.519531 C 21.46875 19.273438 21.621094 19.085938 21.808594 18.808594 C 22.460938 17.824219 22.671875 16.574219 22.378906 15.414062 C 21.953125 13.730469 20.53125 12.472656 18.789062 12.246094 C 18.578125 12.21875 18.128906 12.207031 17.914062 12.226562 Z M 18.765625 15.425781 L 19.285156 14.90625 L 19.800781 15.421875 L 19.28125 15.941406 L 18.757812 16.460938 L 19.800781 17.503906 L 19.546875 17.757812 C 19.40625 17.894531 19.292969 18.003906 19.285156 18 C 19.28125 17.996094 19.046875 17.765625 18.769531 17.492188 C 18.488281 17.21875 18.253906 16.996094 18.246094 16.992188 C 18.238281 16.988281 18 17.21875 17.71875 17.503906 L 17.203125 18.019531 L 16.6875 17.503906 L 17.726562 16.464844 L 17.4375 16.167969 C 17.277344 16.003906 17.046875 15.769531 16.921875 15.644531 L 16.695312 15.414062 L 17.203125 14.90625 L 18.242188 15.945312 Z M 18.765625 15.425781 "/>
</g>
</svg>
