<?xml version="1.0" encoding="UTF-8"?>
<svg xmlns="http://www.w3.org/2000/svg" xmlns:xlink="http://www.w3.org/1999/xlink" width="23pt" height="23pt" viewBox="0 0 23 23" version="1.1">
<g id="surface1">
<path style=" stroke:none;fill-rule:nonzero;fill:rgb(0%,0%,0%);fill-opacity:1;" d="M 9.882812 0.75 C 9.847656 0.753906 9.707031 0.769531 9.570312 0.777344 C 8.878906 0.832031 8.113281 0.976562 7.4375 1.175781 C 4.988281 1.902344 3.074219 3.492188 1.882812 5.785156 C 1.289062 6.929688 0.917969 8.203125 0.761719 9.625 C 0.722656 9.988281 0.707031 11.074219 0.734375 11.488281 C 0.945312 14.550781 2.34375 17.242188 4.59375 18.898438 C 5.835938 19.8125 7.332031 20.402344 8.984375 20.628906 C 9.566406 20.710938 9.789062 20.726562 10.449219 20.726562 C 11.117188 20.726562 11.382812 20.703125 11.992188 20.613281 C 12.527344 20.53125 13.289062 20.355469 13.273438 20.320312 C 13.265625 20.308594 13.230469 20.195312 13.191406 20.074219 C 13.054688 19.640625 12.976562 19.207031 12.960938 18.75 L 12.945312 18.460938 L 12.730469 18.527344 C 11.769531 18.800781 10.730469 18.917969 9.894531 18.847656 C 7.484375 18.640625 5.554688 17.636719 4.214844 15.898438 C 3.324219 14.734375 2.773438 13.328125 2.574219 11.699219 C 2.527344 11.316406 2.527344 10.164062 2.574219 9.773438 C 2.703125 8.703125 2.964844 7.785156 3.402344 6.894531 C 4.628906 4.402344 6.882812 2.90625 9.8125 2.636719 C 11 2.527344 12.441406 2.765625 13.628906 3.261719 C 15.960938 4.238281 17.625 6.351562 18.148438 8.996094 C 18.265625 9.589844 18.308594 10.078125 18.308594 10.738281 C 18.308594 11.398438 18.265625 11.878906 18.148438 12.484375 C 18.101562 12.714844 17.976562 13.222656 17.941406 13.316406 C 17.933594 13.339844 17.960938 13.34375 18.125 13.34375 C 18.605469 13.351562 19.289062 13.492188 19.714844 13.671875 C 19.742188 13.679688 19.753906 13.632812 19.828125 13.335938 C 19.921875 12.9375 19.980469 12.605469 20.035156 12.21875 C 20.101562 11.6875 20.117188 11.464844 20.117188 10.738281 C 20.117188 9.679688 20.035156 9 19.808594 8.0625 C 19.445312 6.589844 18.800781 5.277344 17.878906 4.128906 C 17.660156 3.855469 17.082031 3.257812 16.828125 3.039062 C 15.3125 1.738281 13.5625 1.015625 11.390625 0.785156 C 11.132812 0.757812 10.039062 0.734375 9.882812 0.75 Z M 9.882812 0.75 "/>
<path style=" stroke:none;fill-rule:nonzero;fill:rgb(0%,0%,0%);fill-opacity:1;" d="M 10.054688 5.492188 C 10.015625 5.496094 9.894531 5.515625 9.789062 5.535156 C 8.757812 5.734375 8.015625 6.507812 7.777344 7.632812 C 7.742188 7.800781 7.738281 7.875 7.738281 8.265625 C 7.738281 8.65625 7.742188 8.730469 7.777344 8.894531 C 7.988281 9.863281 8.546875 10.5625 9.363281 10.871094 C 9.964844 11.101562 10.78125 11.109375 11.410156 10.898438 C 12.136719 10.652344 12.710938 10.050781 12.964844 9.269531 C 13.089844 8.886719 13.105469 8.761719 13.105469 8.265625 C 13.105469 7.875 13.101562 7.800781 13.066406 7.632812 C 12.949219 7.078125 12.703125 6.59375 12.355469 6.230469 C 12.007812 5.875 11.574219 5.640625 11.054688 5.535156 C 10.902344 5.5 10.78125 5.492188 10.492188 5.488281 C 10.289062 5.484375 10.09375 5.488281 10.054688 5.492188 Z M 10.054688 5.492188 "/>
<path style=" stroke:none;fill-rule:nonzero;fill:rgb(0%,0%,0%);fill-opacity:1;" d="M 7.472656 10.328125 C 6.488281 10.667969 5.742188 11.566406 5.5625 12.632812 C 5.523438 12.863281 5.492188 13.449219 5.503906 13.710938 C 5.539062 14.40625 5.769531 14.917969 6.167969 15.203125 C 6.324219 15.3125 6.425781 15.351562 6.808594 15.457031 C 8.140625 15.816406 9.105469 15.945312 10.414062 15.945312 C 11.558594 15.945312 12.515625 15.828125 13.546875 15.566406 L 13.917969 15.472656 L 14.035156 15.316406 C 14.28125 14.980469 14.753906 14.527344 15.140625 14.246094 L 15.289062 14.144531 L 15.308594 14.023438 C 15.375 13.628906 15.363281 13.09375 15.28125 12.667969 C 15.082031 11.640625 14.46875 10.808594 13.644531 10.4375 C 13.527344 10.382812 13.417969 10.34375 13.230469 10.285156 C 13.21875 10.28125 13.179688 10.320312 13.140625 10.371094 C 12.613281 11.128906 11.816406 11.597656 10.847656 11.71875 C 10.613281 11.75 10.019531 11.734375 9.792969 11.691406 C 8.941406 11.53125 8.214844 11.085938 7.753906 10.445312 C 7.6875 10.351562 7.632812 10.273438 7.628906 10.277344 C 7.628906 10.277344 7.558594 10.300781 7.472656 10.328125 Z M 7.472656 10.328125 "/>
<path style=" stroke:none;fill-rule:nonzero;fill:rgb(0%,0%,0%);fill-opacity:1;" d="M 17.511719 14.082031 C 17.480469 14.085938 17.386719 14.097656 17.296875 14.109375 C 16.535156 14.203125 15.757812 14.53125 15.203125 14.992188 C 15.027344 15.136719 14.75 15.425781 14.601562 15.617188 C 14.238281 16.078125 13.960938 16.652344 13.800781 17.277344 C 13.6875 17.714844 13.664062 17.910156 13.664062 18.511719 C 13.664062 19 13.671875 19.085938 13.707031 19.300781 C 13.847656 20.121094 14.148438 20.832031 14.601562 21.410156 C 14.757812 21.613281 15.089844 21.945312 15.273438 22.089844 C 16.015625 22.664062 16.914062 22.957031 17.96875 22.957031 C 19.023438 22.957031 19.914062 22.667969 20.664062 22.089844 C 20.84375 21.949219 21.175781 21.617188 21.339844 21.40625 C 21.699219 20.945312 21.980469 20.367188 22.136719 19.746094 C 22.253906 19.296875 22.273438 19.113281 22.273438 18.511719 C 22.273438 17.914062 22.253906 17.730469 22.136719 17.277344 C 22.019531 16.824219 21.808594 16.316406 21.582031 15.960938 C 21.367188 15.621094 21.027344 15.234375 20.734375 14.992188 C 20.191406 14.546875 19.511719 14.246094 18.714844 14.113281 C 18.542969 14.085938 17.652344 14.058594 17.511719 14.082031 Z M 19.917969 16.351562 C 19.957031 16.375 20.011719 16.425781 20.042969 16.464844 C 20.085938 16.519531 20.097656 16.554688 20.101562 16.648438 L 20.109375 16.761719 L 19.015625 18.828125 C 18.414062 19.960938 17.90625 20.914062 17.890625 20.941406 C 17.871094 20.972656 17.820312 21.015625 17.78125 21.039062 C 17.691406 21.09375 17.546875 21.101562 17.460938 21.054688 C 17.433594 21.039062 16.988281 20.683594 16.476562 20.261719 C 15.476562 19.4375 15.472656 19.429688 15.472656 19.265625 C 15.472656 19.019531 15.710938 18.84375 15.933594 18.921875 C 15.96875 18.933594 16.328125 19.21875 16.742188 19.558594 C 17.15625 19.902344 17.496094 20.179688 17.5 20.179688 C 17.507812 20.175781 17.945312 19.351562 18.480469 18.347656 C 19.011719 17.339844 19.464844 16.484375 19.488281 16.453125 C 19.578125 16.320312 19.78125 16.269531 19.917969 16.351562 Z M 19.917969 16.351562 "/>
</g>
</svg>
