<svg xmlns="http://www.w3.org/2000/svg" width="63.39" height="37.188" viewBox="0 0 63.39 37.188">
  <g id="views-eye-svgrepo-com" transform="translate(0 -8.908)">
    <path id="Path_11622" data-name="Path 11622" d="M31.668,46.1A35.316,35.316,0,0,0,63.39,27.5,35.191,35.191,0,0,0,31.722,8.908,35.316,35.316,0,0,0,0,27.5,35.191,35.191,0,0,0,31.668,46.1Zm.027-32.608A14.014,14.014,0,1,1,17.681,27.5,14.014,14.014,0,0,1,31.695,13.488Z" transform="translate(0)" fill="#32a583"/>
    <path id="Path_11623" data-name="Path 11623" d="M156.822,73.928a14.014,14.014,0,1,0-14.014-14.014A14.014,14.014,0,0,0,156.822,73.928Zm0-25.816a11.8,11.8,0,1,1-11.8,11.8A11.8,11.8,0,0,1,156.822,48.113Z" transform="translate(-125.127 -32.412)" fill="#2d2d2d"/>
    <path id="Path_11624" data-name="Path 11624" d="M172.481,87.375a11.8,11.8,0,1,0-11.8-11.8A11.8,11.8,0,0,0,172.481,87.375Zm0-19.791a7.99,7.99,0,1,1-7.99,7.99A7.99,7.99,0,0,1,172.481,67.583Z" transform="translate(-140.787 -48.071)" fill="#f57010"/>
    <path id="Path_11625" data-name="Path 11625" d="M199.454,110.536a7.99,7.99,0,1,0-7.99-7.99A7.99,7.99,0,0,0,199.454,110.536Zm0-11.957a3.967,3.967,0,1,1-3.967,3.967A3.967,3.967,0,0,1,199.454,98.579Z" transform="translate(-167.759 -75.044)" fill="#fff"/>
    <circle id="Ellipse_3819" data-name="Ellipse 3819" cx="3.962" cy="3.962" r="3.962" transform="translate(27.733 23.54)" fill="#2d2d2d"/>
  </g>
</svg>
