<svg xmlns="http://www.w3.org/2000/svg" width="109.325" height="21.292" viewBox="0 0 109.325 21.292"><defs><style>.a{fill:#fff;}</style></defs><g transform="translate(-208.237 -736.448)"><g transform="translate(249.109 740.599)"><path class="a" d="M251.176,751.751l-2.232-7.594a.184.184,0,0,1-.015-.079.19.19,0,0,1,.063-.15.254.254,0,0,1,.174-.055h1.376a.252.252,0,0,1,.27.221l1.3,5.189q.015.063.063.063t.063-.063l1.344-5.189a.26.26,0,0,1,.285-.221h1.217a.26.26,0,0,1,.285.221l1.392,5.2c.01.043.032.063.063.063s.053-.02.063-.063l1.361-5.2a.259.259,0,0,1,.284-.221l1.361.016a.21.21,0,0,1,.221.284l-2.246,7.577a.271.271,0,0,1-.285.206h-1.408a.269.269,0,0,1-.284-.206l-1.36-4.73c-.011-.042-.033-.062-.064-.062s-.053.02-.062.062l-1.25,4.714a.261.261,0,0,1-.286.222H251.46A.269.269,0,0,1,251.176,751.751Z" transform="translate(-248.929 -740.566)"/><path class="a" d="M261.277,742.551a1.113,1.113,0,0,1-.331-.831,1.087,1.087,0,0,1,.331-.823,1.191,1.191,0,0,1,.855-.317,1.161,1.161,0,0,1,.847.317,1.1,1.1,0,0,1,.324.823,1.131,1.131,0,0,1-.324.831,1.146,1.146,0,0,1-.847.323A1.174,1.174,0,0,1,261.277,742.551Zm-.062,9.167v-7.577a.224.224,0,0,1,.253-.253H262.8a.224.224,0,0,1,.253.253v7.577a.224.224,0,0,1-.253.253h-1.329A.224.224,0,0,1,261.215,751.718Z" transform="translate(-248.876 -740.581)"/><path class="a" d="M264.71,751.717V741.149a.224.224,0,0,1,.253-.253h1.329a.224.224,0,0,1,.253.253v5.616c0,.042.013.069.039.08s.05,0,.071-.033l2.515-2.783a.406.406,0,0,1,.317-.143h1.518a.261.261,0,0,1,.159.047.136.136,0,0,1,.063.111.216.216,0,0,1-.063.159l-1.947,2.309a.111.111,0,0,0-.016.127l2.341,5.031.033.127c0,.115-.075.174-.222.174h-1.408a.286.286,0,0,1-.285-.19l-1.709-3.955c-.031-.062-.073-.067-.127-.016l-1.233,1.44a.2.2,0,0,0-.047.111v2.357a.224.224,0,0,1-.253.253h-1.329A.224.224,0,0,1,264.71,751.717Z" transform="translate(-248.859 -740.58)"/><path class="a" d="M273.269,751.451a3.259,3.259,0,0,1-1.251-1.756,5.518,5.518,0,0,1-.268-1.8,5.922,5.922,0,0,1,.253-1.8,3.247,3.247,0,0,1,1.266-1.723,3.733,3.733,0,0,1,2.168-.618,3.515,3.515,0,0,1,2.08.618,3.29,3.29,0,0,1,1.241,1.708,5.136,5.136,0,0,1,.285,1.8,5.669,5.669,0,0,1-.269,1.8,3.4,3.4,0,0,1-1.25,1.764,3.5,3.5,0,0,1-2.1.641A3.647,3.647,0,0,1,273.269,751.451Zm3.156-1.281a1.787,1.787,0,0,0,.594-.934,4.2,4.2,0,0,0,.174-1.329,4.928,4.928,0,0,0-.158-1.329,1.707,1.707,0,0,0-.61-.925,1.688,1.688,0,0,0-1.036-.326,1.658,1.658,0,0,0-1.03.326,1.723,1.723,0,0,0-.6.925,5.677,5.677,0,0,0,0,2.658,1.743,1.743,0,0,0,.609.934,1.689,1.689,0,0,0,1.053.331A1.569,1.569,0,0,0,276.425,750.17Z" transform="translate(-248.828 -740.567)"/><path class="a" d="M286.289,744.506a2.785,2.785,0,0,1,.767,2.072V751.7a.224.224,0,0,1-.253.253h-1.329a.224.224,0,0,1-.253-.253v-4.745a1.662,1.662,0,0,0-.419-1.179,1.573,1.573,0,0,0-2.2-.008,1.629,1.629,0,0,0-.419,1.17V751.7a.224.224,0,0,1-.253.253H280.6a.224.224,0,0,1-.253-.253v-7.578a.224.224,0,0,1,.253-.253h1.33a.224.224,0,0,1,.253.253v.427c0,.042.009.068.031.079s.042,0,.063-.032a2.314,2.314,0,0,1,1.946-.854A2.805,2.805,0,0,1,286.289,744.506Z" transform="translate(-248.79 -740.567)"/><path class="a" d="M294.464,744.506a2.785,2.785,0,0,1,.767,2.072V751.7a.224.224,0,0,1-.253.253H293.65a.224.224,0,0,1-.253-.253v-4.745a1.662,1.662,0,0,0-.419-1.179,1.574,1.574,0,0,0-2.2-.008,1.633,1.633,0,0,0-.419,1.17V751.7a.224.224,0,0,1-.253.253h-1.329a.224.224,0,0,1-.253-.253v-7.578a.224.224,0,0,1,.253-.253h1.329a.224.224,0,0,1,.253.253v.427c0,.042.01.068.032.079s.042,0,.063-.032a2.314,2.314,0,0,1,1.946-.854A2.805,2.805,0,0,1,294.464,744.506Z" transform="translate(-248.753 -740.567)"/><path class="a" d="M301.342,750.288a1.9,1.9,0,0,0,.7-.625.232.232,0,0,1,.349-.078l.759.6a.312.312,0,0,1,.111.206.277.277,0,0,1-.047.142,3.18,3.18,0,0,1-1.249,1.14,3.9,3.9,0,0,1-1.819.411,3.558,3.558,0,0,1-2.1-.594,3.32,3.32,0,0,1-1.226-1.652,5.712,5.712,0,0,1-.316-1.962,6.184,6.184,0,0,1,.174-1.677,3.2,3.2,0,0,1,1.186-1.788,3.486,3.486,0,0,1,2.153-.664q2.958,0,3.464,3.243a12.078,12.078,0,0,1,.111,1.3.224.224,0,0,1-.253.253h-4.9a.084.084,0,0,0-.094.094,2.167,2.167,0,0,0,.094.7,1.565,1.565,0,0,0,.665.886,2.2,2.2,0,0,0,1.218.315A2.294,2.294,0,0,0,301.342,750.288Zm-2.325-4.667a1.47,1.47,0,0,0-.531.815,2.363,2.363,0,0,0-.126.665c-.009.063.017.094.079.094h3.18a.084.084,0,0,0,.1-.094,4.954,4.954,0,0,0-.1-.57,1.565,1.565,0,0,0-.561-.878,1.668,1.668,0,0,0-1.052-.326A1.6,1.6,0,0,0,299.017,745.621Z" transform="translate(-248.718 -740.567)"/><path class="a" d="M306.992,752.084l-.886-.625a3.247,3.247,0,0,1-1.233-1.685,7.125,7.125,0,0,1,0-3.765,3.075,3.075,0,0,1,1.226-1.653,3.657,3.657,0,0,1,2.111-.609,3.758,3.758,0,0,1,2.152.618,2.947,2.947,0,0,1,1.218,1.549,3.108,3.108,0,0,1,.093.444v.062c0,.118-.068.191-.2.222l-1.313.206h-.064a.216.216,0,0,1-.221-.19l-.047-.206a1.361,1.361,0,0,0-.553-.8,1.748,1.748,0,0,0-1.061-.326,1.67,1.67,0,0,0-1.02.309,1.482,1.482,0,0,0-.562.847,4.925,4.925,0,0,0-.158,1.407,5.747,5.747,0,0,0,.142,1.408,1.67,1.67,0,0,0,.571.879,1.613,1.613,0,0,0,1.028.323,1.749,1.749,0,0,0,1.037-.308,1.386,1.386,0,0,0,.561-.815l.016-.079a.3.3,0,0,1,.1-.159.235.235,0,0,1,.2-.062l1.313.2c.138.032.206.106.206.222a2.287,2.287,0,0,1-.062.38,2.83,2.83,0,0,1-1.218,1.605,3.878,3.878,0,0,1-2.152.594Z" transform="translate(-248.682 -740.567)"/><path class="a" d="M316.847,745.37h-1.535a.084.084,0,0,0-.1.093V749.2a1.242,1.242,0,0,0,.262.886,1.111,1.111,0,0,0,.83.269h.412a.224.224,0,0,1,.253.253v1.06a.241.241,0,0,1-.253.269l-.76.015a3.251,3.251,0,0,1-1.866-.435,1.892,1.892,0,0,1-.633-1.621v-4.43a.083.083,0,0,0-.1-.093h-.822a.224.224,0,0,1-.253-.253v-.981a.224.224,0,0,1,.253-.253h.822a.084.084,0,0,0,.1-.1v-1.772a.224.224,0,0,1,.253-.253h1.25a.224.224,0,0,1,.253.253v1.772a.085.085,0,0,0,.1.1h1.535a.224.224,0,0,1,.253.253v.981A.224.224,0,0,1,316.847,745.37Z" transform="translate(-248.648 -740.576)"/></g><path class="a" d="M238.961,737.046a4.008,4.008,0,0,0-3.078,5.9.893.893,0,0,1-.014.875l-1.84,3.187a.907.907,0,0,1-.795.447h-.044a.913.913,0,0,1-.8-.451l-1.649-2.858a.889.889,0,0,1,0-.9,4.3,4.3,0,1,0-7.4-.041.893.893,0,0,1,0,.9l-2.486,4.3a.9.9,0,0,1-.8.45h-.11c-.055,0-.11,0-.165,0a.894.894,0,0,1-.8-.45l-2.3-3.978a.9.9,0,0,1,.02-.935,4.585,4.585,0,1,0-3.869,2.127q.137,0,.271-.009a.909.909,0,0,1,.845.449l2.266,3.925a.9.9,0,0,1-.021.936,4.415,4.415,0,0,0-.67,2.792,4.443,4.443,0,0,0,8.867-.419,4.415,4.415,0,0,0-.715-2.414.9.9,0,0,1-.026-.942l2.4-4.161a.889.889,0,0,1,.808-.45c.066,0,.134.005.2.005l.149,0a.893.893,0,0,1,.8.449l1.636,2.835a.89.89,0,0,1,0,.9,4.156,4.156,0,1,0,7.156-.027.893.893,0,0,1,0-.905l1.78-3.083a.917.917,0,0,1,.809-.45h.023a4.014,4.014,0,1,0-.447-8Zm-11.909,2.673a1.316,1.316,0,1,1-1.317,1.316A1.318,1.318,0,0,1,227.052,739.718Zm-15.632,1.316a1.4,1.4,0,1,1,1.4,1.4A1.405,1.405,0,0,1,211.42,741.034Zm8.518,13.622a1.36,1.36,0,1,1,1.36-1.36A1.361,1.361,0,0,1,219.938,754.656Zm13.292-1.772a1.273,1.273,0,1,1,1.273-1.273A1.275,1.275,0,0,1,233.229,752.885Zm6.178-10.622a1.228,1.228,0,1,1,1.228-1.228A1.229,1.229,0,0,1,239.408,742.263Z"/></g></svg>