<svg xmlns="http://www.w3.org/2000/svg" viewBox="0 0 160 40"><defs><style>.cls-1{fill:none;}.cls-2{fill:#2C41B1;}.cls-3{fill:#24BDD1;}</style></defs><title>Asset 4</title><g id="Layer_2" data-name="Layer 2"><g id="Layer_1-2" data-name="Layer 1"><rect class="cls-1" width="160" height="40"/><path class="cls-2" d="M57.32,16.52h2.87l1.59,6.87h.09l1.65-6.87h2.82L68,23.35h.08l1.56-6.83h2.86L69.75,26.75h-3L65,20.31h-.13L63.1,26.75h-3Z"/><path class="cls-2" d="M73.63,13.76a1.54,1.54,0,1,1,1.54,1.44A1.49,1.49,0,0,1,73.63,13.76Zm.11,2.76h2.84V26.75H73.74Z"/><path class="cls-2" d="M78.56,13.11h2.83V20.4h.16l3.27-3.88h3.26L84.28,21l4,5.8H85l-2.79-4.13-.77.88v3.25H78.56Z"/><path class="cls-2" d="M88.34,21.67c0-3.17,1.93-5.29,5-5.29s5,2.12,5,5.29S96.48,27,93.38,27,88.34,24.82,88.34,21.67Zm7.19,0c0-1.78-.74-3.1-2.14-3.1s-2.16,1.32-2.16,3.1.73,3.1,2.16,3.1S95.53,23.44,95.53,21.65Z"/><path class="cls-2" d="M102.81,26.75H100V16.52h2.71v1.8h.12a3.1,3.1,0,0,1,3.08-1.94c2.13,0,3.52,1.47,3.52,3.85v6.52h-2.83v-6a1.76,1.76,0,0,0-1.82-2,1.89,1.89,0,0,0-1.94,2.09Z"/><path class="cls-2" d="M114.19,26.75h-2.84V16.52h2.7v1.8h.12a3.1,3.1,0,0,1,3.08-1.94c2.13,0,3.53,1.47,3.53,3.85v6.52h-2.84v-6a1.76,1.76,0,0,0-1.82-2,1.88,1.88,0,0,0-1.93,2.09Z"/><path class="cls-2" d="M122.31,21.68c0-3.16,2-5.3,5-5.3,2.71,0,4.81,1.72,4.81,5.2v.78h-7a2.23,2.23,0,0,0,2.32,2.47,1.94,1.94,0,0,0,2-1.19l2.62.18c-.4,1.89-2.1,3.13-4.63,3.13C124.23,27,122.31,24.92,122.31,21.68Zm7.1-1.08a2,2,0,0,0-2.09-2.1,2.17,2.17,0,0,0-2.21,2.1Z"/><path class="cls-2" d="M133.23,21.67c0-3.13,1.92-5.29,5-5.29,2.67,0,4.47,1.56,4.59,3.92h-2.68a1.82,1.82,0,0,0-1.86-1.7c-1.32,0-2.18,1.1-2.18,3s.85,3.07,2.18,3.07a1.82,1.82,0,0,0,1.86-1.7h2.68C142.7,25.35,141,27,138.27,27,135.12,27,133.23,24.78,133.23,21.67Z"/><path class="cls-2" d="M149.81,18.65h-1.92v5c0,.79.39,1,1,1a3.64,3.64,0,0,0,.7-.09l.45,2.11a5.81,5.81,0,0,1-1.54.27C146.4,27,145,26,145.05,24V18.65h-1.4V16.52h1.4V14.07h2.84v2.45h1.92Z"/><path class="cls-3" d="M46.07,9.2a4.73,4.73,0,0,0-4.15,4.09,4.69,4.69,0,0,0,.54,2.84,1,1,0,0,1,0,1L40.28,20.9a1.07,1.07,0,0,1-.93.52H39.3a1,1,0,0,1-.94-.52l-1.94-3.36a1,1,0,0,1,0-1.06A5,5,0,1,0,27,13.89a5,5,0,0,0,.69,2.54,1,1,0,0,1,0,1.05l-2.92,5.06a1,1,0,0,1-.94.53h-.33a1,1,0,0,1-.94-.53l-2.7-4.67a1.08,1.08,0,0,1,0-1.1,5.38,5.38,0,1,0-4.54,2.5h.31a1.07,1.07,0,0,1,1,.53l2.67,4.61a1.08,1.08,0,0,1,0,1.1,5.22,5.22,0,1,0,8.79-.05,1.06,1.06,0,0,1,0-1.11l2.82-4.88a1,1,0,0,1,.94-.53h.42a1,1,0,0,1,.94.53l1.92,3.33a1,1,0,0,1,0,1.05,4.89,4.89,0,1,0,8.41,0,1,1,0,0,1,0-1.06l2.09-3.62a1.07,1.07,0,0,1,1-.53h0a4.71,4.71,0,1,0-.53-9.4Zm-14,3.14a1.55,1.55,0,1,1-1.54,1.55A1.55,1.55,0,0,1,32.09,12.34ZM13.74,13.89a1.65,1.65,0,1,1,1.65,1.64A1.65,1.65,0,0,1,13.74,13.89Zm10,16a1.6,1.6,0,1,1,1.6-1.6A1.6,1.6,0,0,1,23.74,29.88Zm15.6-2.08a1.5,1.5,0,1,1,1.5-1.5A1.5,1.5,0,0,1,39.34,27.8ZM46.6,15.33A1.45,1.45,0,1,1,48,13.89,1.44,1.44,0,0,1,46.6,15.33Z"/></g></g></svg>
